<?xml version="1.0" encoding="utf-8" ?><svg xmlns="http://www.w3.org/2000/svg" xmlns:xlink="http://www.w3.org/1999/xlink" width="1276" height="1702" viewBox="0 0 1276 1702"><path fill="#FECC07" d="M605.151 473.733C606.561 464.214 612.829 441.855 615.248 430.744C620.92 404.208 625.519 377.454 629.036 350.547C630.884 336.861 632.516 323.147 633.932 309.41C634.592 302.945 636.895 274.979 638.529 270.85L639.439 271.305L640.287 274.894C644.513 321.948 649.926 367.272 658.826 413.741C662.846 434.729 669.466 456.203 673.179 476.603C700.828 471.063 722.989 478.858 740.685 500.988C721.451 508.922 710.426 518.592 701.987 538.056L707.493 540.055C715.915 526.165 727.274 513.492 743.396 509.06C758.49 504.911 772.224 512.595 775.803 527.885C779.243 542.578 774.635 561.666 766.905 574.299L772.41 579.057C778.175 584.579 782.822 589.02 788.077 595.042L791.914 599.297C860.762 564.877 882.518 626.927 826.153 658.733L828.603 665.889C830.453 671.332 833.413 681.612 834.264 687.405L835.366 693.166C857.208 693.417 889.547 703.005 888.765 730.013L888.731 731.073C898.923 734.398 909.266 737.242 919.726 739.594C923.809 740.553 939.718 743.572 942.101 744.783L941.678 745.686L940.784 745.913C937.179 747.097 904.281 756.488 901.298 756.86C897.4 758.305 893.512 759.801 889.545 761.039C894.759 789.426 888.416 810.742 865.258 829.343C858.709 812.577 845.795 796.415 828.109 790.684L826.202 795.955C835.072 801.451 839.607 804.898 846.533 812.503C863.306 830.918 864.236 860.129 834.66 865.088C821.226 867.341 803.243 862.554 791.79 855.341L786.981 860.981C781.574 867.005 777.374 871.262 771.188 876.602L766.851 880.495C801.886 944.584 741.671 973.567 707.34 914.825L700.31 917.135C693.378 919.523 686.292 921.439 679.101 922.872L672.987 923.967C672.383 946.604 658.574 992.433 624.684 972.621C609.593 963.799 606.352 940.156 603.889 923.905L596.947 922.454C589.748 921.037 582.66 919.103 575.738 916.668L570.54 914.967C527.242 977.894 478.685 937.892 510.742 880.564L505.121 875.644C498.985 869.929 495.02 865.951 489.476 859.681L485.645 855.398C422.487 890.037 391.71 830.967 451.394 796.055L448.991 788.946C428.701 798.028 419.541 809.113 411.391 829.219C388.768 812.632 383.214 787.007 388.697 760.752C374.426 755.832 357.971 751.346 343.41 747.566C340.449 746.957 336.44 745.624 333.457 744.732C353.132 741.36 371.64 734.99 388.446 732.092C388.984 731.095 389.124 731.168 389.06 730.079C387.501 703.536 419.714 693.266 442.167 693.175L443.627 685.908C445.18 678.317 447.253 671.564 449.438 664.149L451.42 658.859C392.944 623.075 420.034 565.978 485.752 599.27L490.317 593.87C495.765 588.162 500.73 583.371 506.496 577.98L510.712 574.351C503.567 562.604 498.868 544.513 501.239 530.958C506.218 502.504 535.086 503.016 553.298 519.424C561.289 526.622 564.355 530.551 570.162 539.859L576.98 537.632C568.096 516.769 557.135 508.23 536.757 499.847C549.409 483.534 569.177 474.352 589.806 475.207C593.026 475.319 602.338 476.795 603.958 476.39L605.151 473.733Z"/><path fill="white" d="M448.991 788.946C448.189 786.963 447.747 786.356 448.05 784.221C450.842 783.796 453.26 785.544 456.289 786.894C517.262 815.293 564.137 846.555 611.527 894.169L610.305 891.129C609.948 880.197 608.251 875.247 618.4 869.189C632.171 869.306 645.942 869.321 659.713 869.232C668.832 875.197 670.206 885.63 665.57 894.983C677.126 883.488 687.849 873.86 699.785 862.869C702.627 861.005 705.656 858.645 708.255 856.455C722.448 844.492 738.109 834.814 753.058 823.954C759.953 820.63 770.994 813.483 778.061 809.419C792.106 801.349 806.549 793.993 821.336 787.38C823.768 786.363 826.181 784.934 828.502 783.654L829.636 784.509C829.276 787.38 829.076 787.922 828.109 790.684L826.202 795.955C835.072 801.451 839.607 804.898 846.533 812.503C863.306 830.918 864.236 860.129 834.66 865.088C821.226 867.341 803.243 862.554 791.79 855.341L786.981 860.981C781.574 867.005 777.374 871.262 771.188 876.602L766.851 880.495C801.886 944.584 741.671 973.567 707.34 914.825L700.31 917.135C693.378 919.523 686.292 921.439 679.101 922.872L672.987 923.967C672.383 946.604 658.574 992.433 624.684 972.621C609.593 963.799 606.352 940.156 603.889 923.905L596.947 922.454C589.748 921.037 582.66 919.103 575.738 916.668L570.54 914.967C527.242 977.894 478.685 937.892 510.742 880.564L505.121 875.644C498.985 869.929 495.02 865.951 489.476 859.681L485.645 855.398C422.487 890.037 391.71 830.967 451.394 796.055L448.991 788.946Z"/><path fill="#131F48" d="M456.289 786.894C517.262 815.293 564.137 846.555 611.527 894.169L611.302 895.449C596.375 896.229 597.543 901.808 597.741 915.045C531.553 899.47 476.74 852.528 456.289 786.894Z"/><path fill="white" d="M537.922 854.825C539.006 857.687 539.663 859.33 541.095 862.025C543.269 862.491 544.76 862.533 546.948 862.668L547.011 864.074L543.788 866.993C542.777 869.532 543.244 870.447 543.878 873.158L544.103 874.098C542.294 874.006 539.701 871.578 537.923 870.27C535.648 872.078 534.578 873.152 531.862 874.196C533.433 868.082 532.983 866.71 528.067 862.763L528.456 862.095L534.52 861.812C536.35 860.293 536.947 857.386 537.922 854.825Z"/><path fill="white" d="M505.834 825.814C507.065 826.969 508.082 829.997 508.831 831.74C511.228 833.295 512.038 833.33 514.881 833.29L515.282 833.911L513.579 834.111L513.144 836.093L510.553 837.659C511.512 840.514 511.813 841.237 512.134 844.185C510.118 844.245 508.685 842.631 506.716 841.205C504.907 841.4 502.282 843.406 500.539 844.506L500.356 843.012L501.144 843.905L501.411 843.671L500.516 842.257C502.152 836.344 500.85 837.159 496.382 833.544L496.821 832.828L502.485 832.535C504.528 830.866 504.786 828.648 505.834 825.814Z"/><path fill="white" d="M572.722 877.189C575.914 882.68 573.01 881.64 579.709 884.798L578.908 884.427L581.717 884.915C576.755 890.215 577.831 889.174 579.119 896.076L578.282 896.46L572.762 892.479L565.913 897.513C566.964 894.637 568.334 892.263 567.462 889.539C565.224 887.809 564.273 887.452 563.499 884.908C565.28 883.915 567.222 884.213 569.43 884.193C571.279 882.599 571.769 879.823 572.722 877.189Z"/><path fill="#131F48" d="M753.058 823.954C759.953 820.63 770.994 813.483 778.061 809.419C792.106 801.349 806.549 793.993 821.336 787.38C803.01 838.45 770.078 877.894 720.432 901.245C707.522 907.306 693.979 911.919 680.053 914.999C680.012 911.503 680.479 902.44 678.136 899.55C674.699 895.309 669.042 896.45 665.57 894.983C677.126 883.488 687.849 873.86 699.785 862.869C702.627 861.005 705.656 858.645 708.255 856.455C722.448 844.492 738.109 834.814 753.058 823.954Z"/><path fill="white" d="M704.27 876.531C705.66 879.497 705.574 880.584 707.589 884.044C710.181 884.172 711.975 884.297 714.542 884.651C713.823 886.285 711.309 886.863 709.129 889.669C709.599 891.931 710.103 893.722 710.743 895.944L710.038 896.445L704.658 892.672C702.651 894.107 701.214 895.328 698.904 896.169C698.476 891.085 700.493 892.429 698.569 888.27C696.682 887.219 695.522 886.841 694.471 884.967C695.488 884 698.963 884.301 700.794 884.257C702.804 882.821 703.484 879.102 704.27 876.531Z"/><path fill="white" d="M739.142 854.853C739.75 855.695 739.954 855.839 740.13 856.671C741.946 865.252 746.214 859.791 749.447 862.824C747.379 864.448 746.035 865.439 744.232 867.335C744.633 869.39 744.992 871.454 745.309 873.524L744.472 873.927L740.017 870.743C738.296 871.143 736.053 872.658 734.411 873.617C734.137 872.775 734.095 872.944 734.272 872.11C735.841 864.723 732.189 867.091 729.792 862.808C731.849 862.508 733.538 862.338 735.609 862.169C738.264 859.76 737.922 858.684 739.142 854.853Z"/><path fill="white" d="M771.054 825.238C772.415 827.527 772.815 829.018 773.687 831.554C777.332 834.192 778.051 832.43 780.488 833.827L778.257 834.24L778.312 836.101C777.238 836.543 776.576 837.062 775.578 837.706C776.59 840.513 776.893 841.243 777.313 844.157C775.276 844.265 773.879 842.696 771.862 841.275C769.32 841.689 767.918 842.955 765.774 844.419L766.702 842.874L766.047 841.883C767.242 833.989 762.466 837.093 761.414 832.955C763.434 832.663 765.233 832.531 767.268 832.375C769.963 830.355 769.738 828.928 771.054 825.238Z"/><path fill="#FECC07" d="M826.202 795.955C835.072 801.451 839.607 804.898 846.533 812.503C863.306 830.918 864.236 860.129 834.66 865.088C821.226 867.341 803.243 862.554 791.79 855.341C806.011 839.868 819.036 815.559 826.202 795.955Z"/><path fill="#FECC07" d="M603.889 923.905C628.213 927.609 648.49 928.206 672.987 923.967C672.383 946.604 658.574 992.433 624.684 972.621C609.593 963.799 606.352 940.156 603.889 923.905Z"/><path fill="#FECC07" d="M766.851 880.495C801.886 944.584 741.671 973.567 707.34 914.825C730.072 906.809 748.201 895.4 766.851 880.495Z"/><path fill="#FECC07" d="M451.394 796.055C460.175 819.118 469.906 836.147 485.645 855.398C422.487 890.037 391.71 830.967 451.394 796.055Z"/><path fill="#FECC07" d="M510.742 880.564C530.047 895.799 547.057 906.614 570.54 914.967C527.242 977.894 478.685 937.892 510.742 880.564Z"/><path fill="#FECC07" d="M606.195 901.002C616.584 900.974 667.625 899.652 672.89 902.707C677.021 907.586 675.8 915.406 671.313 919.684C662.155 919.713 610.867 921.122 604.832 918.052C600.558 913.307 601.794 905.304 606.195 901.002Z"/><path fill="#FECC07" d="M619.712 874.346L645.693 873.973C653.937 873.871 663.692 874.358 662.493 884.974C661.866 890.522 662.356 890.212 657.855 894.167C650.102 894.24 622.195 896.98 616.608 890.533C612.936 886.296 614.883 878.506 619.712 874.346Z"/><path fill="#131F48" d="M510.712 574.351C503.567 562.604 498.868 544.513 501.239 530.958C506.218 502.504 535.086 503.016 553.298 519.424C561.289 526.622 564.355 530.551 570.162 539.859L576.98 537.632C579.747 536.649 582.339 535.53 584.838 536.339C583.804 538.584 582.208 541.762 581.449 544.011C577.411 553.763 573.001 563.357 568.23 572.773C566.564 576.061 558.868 590.383 558.185 592.546C542.487 615.688 529.006 638.936 508.457 658.649C505.647 661.345 489.465 676.078 488.715 677.495C473.335 688.873 464.397 696.076 447.792 705.593C445.491 707.006 442.605 708.648 440.496 710.237C440.048 705.436 441.416 698.144 442.167 693.175L443.627 685.908C445.18 678.317 447.253 671.564 449.438 664.149L451.42 658.859C392.944 623.075 420.034 565.978 485.752 599.27L490.317 593.87C495.765 588.162 500.73 583.371 506.496 577.98L510.712 574.351Z"/><path fill="#FECC07" d="M451.42 658.859C392.944 623.075 420.034 565.978 485.752 599.27C470.852 617.918 459.292 636.059 451.42 658.859Z"/><path fill="#FECC07" d="M510.712 574.351C503.567 562.604 498.868 544.513 501.239 530.958C506.218 502.504 535.086 503.016 553.298 519.424C561.289 526.622 564.355 530.551 570.162 539.859C547.544 548.931 529.505 558.4 510.712 574.351Z"/><path fill="white" d="M576.98 537.632C579.747 536.649 582.339 535.53 584.838 536.339C583.804 538.584 582.208 541.762 581.449 544.011C517.753 565.6 470.628 612.657 453.065 678.459C450.631 687.58 449.317 696.306 447.792 705.593C445.491 707.006 442.605 708.648 440.496 710.237C440.048 705.436 441.416 698.144 442.167 693.175L443.627 685.908C445.18 678.317 447.253 671.564 449.438 664.149L451.42 658.859C459.292 636.059 470.852 617.918 485.752 599.27L490.317 593.87C495.765 588.162 500.73 583.371 506.496 577.98L510.712 574.351C529.505 558.4 547.544 548.931 570.162 539.859L576.98 537.632Z"/><path fill="white" d="M484.991 644.703C486.287 646.27 486.795 648.621 487.484 650.677C489.805 652.621 491.258 651.872 495.034 651.85C494.741 653.503 491.96 655.178 490.169 656.872L491.138 663.241L490.601 663.966L485.225 660.051C483.207 661.711 482.481 662.196 480.194 663.462C478.149 654.705 482.009 657.846 473.721 651.689C476.904 651.942 478.178 652.172 481.35 651.634C483.783 650.011 484.054 647.655 484.991 644.703Z"/><path fill="white" d="M506.809 609.044C507.953 610.319 508.85 613.063 509.557 614.782C511.651 616.428 512.061 616.896 514.73 617.007L514.028 617.372C514.117 619.278 513.545 619.144 511.757 621.107C512.24 623.343 512.771 625.569 513.348 627.782L512.564 628.09L507.004 624.15L500.05 629.203C501.111 626.512 501.813 625.228 501.967 622.34C500.906 619.466 500.025 618.983 497.663 617.03L497.839 616.141C505.77 615.736 503.971 616.533 506.809 609.044Z"/><path fill="white" d="M536.355 578.955C537.351 581.373 538.088 583.085 539.286 585.404C541.757 585.916 543.943 586.569 546.352 587.265C542.672 593.768 540.792 585.879 542.51 598.334C540.608 598.309 538.527 596.21 536.679 594.829L531.113 598.526C529.177 597.42 532.419 595.625 531.119 591.267C528.599 589.809 527.89 589.703 526.838 587.191C528.364 586.323 531.306 586.552 533.229 586.537C534.66 585.203 535.68 581.045 536.355 578.955Z"/><path fill="#131F48" d="M707.493 540.055C715.915 526.165 727.274 513.492 743.396 509.06C758.49 504.911 772.224 512.595 775.803 527.885C779.243 542.578 774.635 561.666 766.905 574.299L772.41 579.057C778.175 584.579 782.822 589.02 788.077 595.042L791.914 599.297C860.762 564.877 882.518 626.927 826.153 658.733L828.603 665.889C830.453 671.332 833.413 681.612 834.264 687.405L835.366 693.166C836.262 698.948 836.974 703.885 837.508 709.745L829.827 705.424C766.219 670.656 723.756 609.376 696.164 543.99L692.636 535.278L701.987 538.056L707.493 540.055Z"/><path fill="#FECC07" d="M791.914 599.297C860.762 564.877 882.518 626.927 826.153 658.733C818.723 636.569 806.267 617.485 791.914 599.297Z"/><path fill="#FECC07" d="M707.493 540.055C715.915 526.165 727.274 513.492 743.396 509.06C758.49 504.911 772.224 512.595 775.803 527.885C779.243 542.578 774.635 561.666 766.905 574.299C750.594 560.477 727.739 546.812 707.493 540.055Z"/><path fill="white" d="M692.636 535.278L701.987 538.056L707.493 540.055C727.739 546.812 750.594 560.477 766.905 574.299L772.41 579.057C778.175 584.579 782.822 589.02 788.077 595.042L791.914 599.297C806.267 617.485 818.723 636.569 826.153 658.733L828.603 665.889C830.453 671.332 833.413 681.612 834.264 687.405L835.366 693.166C836.262 698.948 836.974 703.885 837.508 709.745L829.827 705.424C825.118 680.984 823.136 666.381 811.407 643.163C786.13 593.125 748.4 562.001 696.164 543.99L692.636 535.278Z"/><path fill="white" d="M770.136 608.915C772.907 611.646 772.156 618.567 779.544 616.703L777.519 617.506C777.488 619.16 776.554 619.649 775.223 621.295C775.722 623.465 776.245 625.629 776.793 627.788L775.864 627.969L771.068 624.554C769.707 624.405 766.171 627.15 765 627.976C763.671 625.377 766.789 623.154 765.095 620.447C764.646 619.729 761.865 618.678 760.732 616.379C767.897 616.31 768.227 614.663 770.136 608.915Z"/><path fill="white" d="M792.188 644.463C793.272 647.134 793.782 648.404 795.22 650.878C798.536 652.551 799.773 651.848 803.902 651.704C801.408 653.366 800.726 653.805 798.612 655.881C797.609 658.868 797.7 659.165 797.747 662.422L797.766 663.299C795.912 663.213 794.425 661.636 792.67 660.348C790.775 661.391 788.906 662.48 787.063 663.613L786.499 662.956L787.458 658.245C786.21 655.026 785.673 655.379 782.628 653.1L782.497 651.941L788.884 651.821C790.528 650.433 791.434 646.694 792.188 644.463Z"/><path fill="white" d="M740.89 578.989C744.502 588.643 742.288 585.463 750.805 587.028L750.708 588.051C749.297 589.077 747.861 590.068 746.401 591.023C745.356 594.789 746.6 593.927 747.276 598.533C745.335 598.303 743.098 596.226 741.253 594.907C739.267 595.93 737.763 597.001 735.91 598.25C733.822 596.766 737.365 594.616 735.603 590.836C733.217 589.573 732.855 589.531 731.296 587.435L732.029 586.729C734.553 586.706 735.092 586.676 737.568 586.25C739.713 584.606 740.075 581.77 740.89 578.989Z"/><path fill="#FEF300" d="M605.151 473.733C606.561 464.214 612.829 441.855 615.248 430.744C620.92 404.208 625.519 377.454 629.036 350.547C630.884 336.861 632.516 323.147 633.932 309.41C634.592 302.945 636.895 274.979 638.529 270.85L639.439 271.305L640.287 274.894C638.67 282.44 638.83 304.101 638.83 312.294L638.813 366.49L638.8 457.734C638.8 465.886 638.039 504.779 639.872 508.841L640.152 509.278C644.652 509.402 649.153 509.462 653.655 509.46C650.331 512.724 646.074 515.805 646.256 520.728C650.589 524.61 657.083 518.569 660.578 515.479C660.54 524 660.607 532.521 660.777 541.041C655.204 536.302 654.167 535.676 647.078 533.72L645.4 534.069C644.941 537.878 650.219 543.408 652.503 546.297C650.068 547.141 649.723 547.202 647.146 547.466C653.8 549.696 660.51 552.407 663.874 559.209C665.607 562.648 665.854 566.647 664.558 570.273C662.452 576.081 657.503 579.922 652.003 582.264C650.428 582.929 648.84 583.562 647.241 584.165C641.695 584.348 635.541 584.143 629.947 584.073C589.713 590.506 577.147 594.258 543.189 619.373C546.874 613.225 557.35 598.18 558.185 592.546C558.868 590.383 566.564 576.061 568.23 572.773C573.001 563.357 577.411 553.763 581.449 544.011C582.208 541.762 583.804 538.584 584.838 536.339C582.339 535.53 579.747 536.649 576.98 537.632C568.096 516.769 557.135 508.23 536.757 499.847C549.409 483.534 569.177 474.352 589.806 475.207C593.026 475.319 602.338 476.795 603.958 476.39L605.151 473.733Z"/><path fill="#FECC07" d="M605.151 473.733C606.361 479.691 589.302 533.948 584.838 536.339C582.339 535.53 579.747 536.649 576.98 537.632C568.096 516.769 557.135 508.23 536.757 499.847C549.409 483.534 569.177 474.352 589.806 475.207C593.026 475.319 602.338 476.795 603.958 476.39L605.151 473.733Z"/><path fill="white" d="M631.57 547.147C637.23 546.742 641.491 546.531 647.146 547.466C653.8 549.696 660.51 552.407 663.874 559.209C665.607 562.648 665.854 566.647 664.558 570.273C662.452 576.081 657.503 579.922 652.003 582.264C650.428 582.929 648.84 583.562 647.241 584.165C641.695 584.348 635.541 584.143 629.947 584.073C628.734 583.619 627.526 583.153 626.321 582.676C620.546 580.358 615.525 576.926 613.157 570.846C611.628 566.96 611.871 562.601 613.823 558.909C617.483 551.857 624.519 549.26 631.57 547.147Z"/><path fill="#131F48" d="M632.264 550.335C661.469 547.938 675.929 571.453 645.84 580.947C635.461 582.734 620.733 580.739 616.274 569.608C615.076 566.695 615.186 563.409 616.576 560.582C619.551 554.458 626.295 552.162 632.264 550.335Z"/><path fill="white" d="M621.309 563.567C628.138 563.384 651.975 561.753 655.855 565.148L655.669 567.948C649.642 568.092 628.6 569.471 622.404 566.879C621.538 566.516 621.523 564.789 621.309 563.567Z"/><path fill="#EE1D23" d="M640.152 509.278C644.652 509.402 649.153 509.462 653.655 509.46C650.331 512.724 646.074 515.805 646.256 520.728C650.589 524.61 657.083 518.569 660.578 515.479C660.54 524 660.607 532.521 660.777 541.041C655.204 536.302 654.167 535.676 647.078 533.72L645.4 534.069C644.941 537.878 650.219 543.408 652.503 546.297C650.068 547.141 649.723 547.202 647.146 547.466C641.491 546.531 637.23 546.742 631.57 547.147C629.639 547.103 627.986 547.329 626.436 546.303C627.436 542.987 630.827 540.946 633.431 534.184L633.863 533.041C625.473 534.988 623.944 535.35 617.74 541.162L617.577 515.927C619.446 517.376 621.397 518.717 623.419 519.944C626.239 521.65 628.224 522.576 631.436 521.796L632.158 520.353C630.922 515.346 627.818 512.833 624.107 509.508C629.457 509.53 634.806 509.454 640.152 509.278Z"/><path fill="white" d="M638.335 516.293L640.181 517.226C641.713 520.08 640.64 522.431 641.208 525.868C643.884 527.738 647.304 527.403 651.212 527.999L651.12 528.851C647.672 530.705 644.832 530.265 640.954 530.123C641.042 534.375 640.883 537.158 640.55 541.396L638.773 539.909C637.378 536.843 637.842 533.569 637.929 530.094C634.386 530.178 631.628 530.338 628.083 529.877L627.171 528.536C628.839 525.276 633.741 528.719 637.768 526.096C637.918 522.826 638.107 519.558 638.335 516.293Z"/><path fill="#FEF300" d="M781.572 745.783C823.721 745.522 865.872 745.565 908.021 745.911C914.103 745.913 937.017 744.454 940.784 745.913C937.179 747.097 904.281 756.488 901.298 756.86C897.4 758.305 893.512 759.801 889.545 761.039C894.759 789.426 888.416 810.742 865.258 829.343C858.709 812.577 845.795 796.415 828.109 790.684C829.076 787.922 829.276 787.38 829.636 784.509L828.502 783.654C826.181 784.934 823.768 786.363 821.336 787.38C806.549 793.993 792.106 801.349 778.061 809.419C770.994 813.483 759.953 820.63 753.058 823.954C749.361 824.673 743.987 827.995 740.461 829.936C765.166 800.231 774.716 784.167 781.572 745.783Z"/><path fill="#FECC07" d="M828.502 783.654C829.234 779.83 892.746 756.072 901.298 756.86C897.4 758.305 893.512 759.801 889.545 761.039C894.759 789.426 888.416 810.742 865.258 829.343C858.709 812.577 845.795 796.415 828.109 790.684C829.076 787.922 829.276 787.38 829.636 784.509L828.502 783.654Z"/><path fill="#00A751" d="M640.304 299.137C642.157 310.003 643.091 321.033 644.438 331.972C656.8 432.307 678.259 538.234 737.057 622.436C714.802 604.003 696.487 593.157 667.541 587.134C660.409 585.65 653.795 585.332 647.241 584.165C648.84 583.562 650.428 582.929 652.003 582.264C657.503 579.922 662.452 576.081 664.558 570.273C665.854 566.647 665.607 562.648 663.874 559.209C660.51 552.407 653.8 549.696 647.146 547.466C649.723 547.202 650.068 547.141 652.503 546.297C650.219 543.408 644.941 537.878 645.4 534.069L647.078 533.72C654.167 535.676 655.204 536.302 660.777 541.041C660.607 532.521 660.54 524 660.578 515.479C657.083 518.569 650.589 524.61 646.256 520.728C646.074 515.805 650.331 512.724 653.655 509.46C649.153 509.462 644.652 509.402 640.152 509.278L639.872 508.841L639.867 375.286C639.87 351.042 639.19 323.009 640.304 299.137Z"/><path fill="#FEF300" d="M488.715 677.495C493.29 677.204 508.771 660.183 513.56 655.995C497.668 689.297 493.109 708.038 495.916 745.151L394.18 745.216C378.909 745.198 363.557 745.047 348.285 745.189C345.914 745.211 344.817 745.475 343.41 747.566C340.449 746.957 336.44 745.624 333.457 744.732C353.132 741.36 371.64 734.99 388.446 732.092C388.984 731.095 389.124 731.168 389.06 730.079C387.501 703.536 419.714 693.266 442.167 693.175C441.416 698.144 440.048 705.436 440.496 710.237C442.605 708.648 445.491 707.006 447.792 705.593C464.397 696.076 473.335 688.873 488.715 677.495Z"/><path fill="#FECC07" d="M442.167 693.175C441.416 698.144 440.048 705.436 440.496 710.237C437.375 714.926 393.591 733.055 388.446 732.092C388.984 731.095 389.124 731.168 389.06 730.079C387.501 703.536 419.714 693.266 442.167 693.175Z"/><path fill="#FEF300" d="M659.713 869.232C680.752 865.303 688.995 861.609 708.569 853.528L699.833 861.462L699.785 862.869C687.849 873.86 677.126 883.488 665.57 894.983C670.206 885.63 668.832 875.197 659.713 869.232Z"/><path fill="#00A751" d="M567.124 852.215C587.127 861.583 596.685 865.418 618.4 869.189C608.251 875.247 609.948 880.197 610.305 891.129C596.765 876.958 582.2 864.638 567.124 852.215Z"/><path fill="#00A751" d="M346.614 746.418C357.035 745.233 385.022 745.955 396.329 745.957L495.927 745.94C502.435 782.546 513.436 803.839 538.942 830.661C535.449 829.591 512.577 815.04 507.723 812.196C492.92 803.559 477.76 795.548 462.284 788.182C437.921 776.724 412.842 766.855 387.203 758.637C374.076 754.425 359.22 750.821 346.614 746.418Z"/><path fill="#00A751" d="M763.671 655.504C771.515 661.488 783.99 675.253 794.502 683.431C837.577 716.939 876.016 730.961 927.943 743.603C915.17 744.759 890.655 744.063 877.281 744.066L781.602 744.06C786.078 710.982 777.801 684.633 763.671 655.504Z"/><path fill="#EE1D23" d="M670.389 632.683L672.411 632.667C679.763 640.7 688.38 669.879 691.403 680.635C681.167 683.091 672.555 684.256 662.16 685.473L641.281 686.369C641.461 669.613 641.296 652.566 641.294 635.786C652.22 635.873 659.791 634.629 670.389 632.683Z"/><path fill="#EE1D23" d="M618.527 769.205C623.815 768.663 630.705 768.696 636.135 768.571L636.109 818.838C622.676 819.379 616.507 821.245 604.657 822.4C596.297 807.323 590.492 790.897 586.254 774.223C597.91 771.331 606.568 770.122 618.527 769.205Z"/><path fill="#EE1D23" d="M759.332 659.034C771.273 678.314 776.724 701.669 777.387 724.173L749.598 724.198C741.17 724.433 742.499 723.874 741.791 715.331C740.548 700.338 737.343 686.908 732.339 672.774C741.899 668.512 750.35 664.385 759.332 659.034Z"/><path fill="#EE1D23" d="M500.264 730.512L535.203 730.527C535.421 749.06 539.276 764.668 545.063 782.036L535.634 786.321C529.502 789.164 523.867 792.421 517.979 795.722C506.135 776.011 500.689 753.359 500.264 730.512Z"/><path fill="#EE1D23" d="M517.685 659.234C526.101 662.681 535.198 668.509 545.175 672.654C537.464 693.979 537.306 701.039 535.084 722.994C533.57 724.606 533.62 724.051 530.558 724.203L500.274 724.239C500.129 699.706 506.751 680.473 517.685 659.234Z"/><path fill="#EE1D23" d="M742.378 730.514L777.438 730.531C776.775 753.288 772.343 769.6 762.7 789.931C761.859 791.637 760.982 792.956 759.969 794.547C759.53 794.691 759.091 794.836 758.653 794.98C751.323 790.904 739.473 785.194 732.256 781.973C739.07 764.766 741.493 748.871 742.378 730.514Z"/><path fill="#EE1D23" d="M689.509 686.647C691.375 686.348 690.457 686.271 692.326 687.088C695.453 694.15 695.783 716.068 695.954 724.202L665.741 724.254L656.449 714.643C651.641 709.535 640.591 700.707 642.08 693.508C643.405 692.255 645.068 691.216 646.93 691.186C661.995 690.942 674.753 689.779 689.509 686.647Z"/><path fill="#EE1D23" d="M581.614 730.507L611.099 730.519C618.313 737.562 625.73 745.281 632.444 752.822C635.301 756.031 637.54 758.95 635.143 763.087L632.803 763.395C614.09 763.792 602.935 764.708 584.828 768.923C582.432 753.816 581.751 745.807 581.614 730.507Z"/><path fill="#EE1D23" d="M726.539 674.907C733.36 683.577 736.182 712.999 737.06 724.214L708.866 724.198C705.817 724.319 704.785 724.612 702.087 723.441C700.721 718.461 700.085 695.638 697.762 684.471C707.523 681.815 717.13 678.622 726.539 674.907Z"/><path fill="#EE1D23" d="M540.448 730.518L576.131 730.525C575.977 743.856 577.166 757.17 579.679 770.263L571.249 772.705C564.193 774.967 557.189 777.386 550.241 779.96C543.37 760.722 542.1 750.67 540.448 730.518Z"/><path fill="#EE1D23" d="M604.782 632.158C616.722 634.558 624.01 635.709 636.136 635.788C636.146 643.657 636.67 679.993 635.605 685.695C633.637 686.721 631.649 686.293 629.348 686.154C618.136 674.611 606.93 662.531 595.833 650.835C598.649 643.912 601.344 638.751 604.782 632.158Z"/><path fill="#EE1D23" d="M701.45 730.517L737.155 730.528C735.842 747.813 734.543 756.833 729.633 773.296L727.082 779.827C711.635 774.785 710.691 772.101 699.639 760.074C700.764 750.864 701.293 739.788 701.45 730.517Z"/><path fill="#EE1D23" d="M641.287 768.504C642.001 768.488 642.716 768.486 643.43 768.499C644.4 768.515 646.578 768.585 647.218 769.131C658.305 778.591 671.701 793.781 681.725 804.167C679.63 809.178 677.339 813.719 674.926 818.562L673.473 821.115C670.665 822.357 647.55 819.131 641.281 818.831C641.546 802.283 641.301 785.101 641.287 768.504Z"/><path fill="#EE1D23" d="M550.145 674.877C565.047 679.63 567.048 683.971 577.88 695.636C576.717 703.022 576.275 715.617 575.707 723.55C573.797 724.535 570.463 724.212 568.173 724.198L540.401 724.217C542.632 702.027 542.975 696.505 550.145 674.877Z"/><path fill="#EE1D23" d="M545.258 787.785L546.724 787.759C548.753 789.276 551.506 795.916 552.779 798.457C559.211 811.302 567.708 821.732 577.127 832.506C572.195 835.178 567.636 839.456 562.401 841.316C560.746 841.904 559.471 840.579 557.794 839.534C540.913 827.363 532.239 817.195 520.734 800.26C528.793 795.419 536.743 791.723 545.258 787.785Z"/><path fill="#EE1D23" d="M715.683 612.408C733.417 623.826 745.269 637.4 756.873 654.633C751.346 657.626 745.773 660.534 740.156 663.354L730.367 667.553C721.152 648.342 714.621 638.005 700.393 622.373C705.748 619.203 710.554 615.899 715.683 612.408Z"/><path fill="#EE1D23" d="M580.121 775.64C581.703 777.349 584.835 788.397 585.779 791.31C589.671 803.307 593.688 812.79 599.814 823.78C593.815 825.39 587.746 827.755 581.891 829.894L577.908 825.62C565.964 811.595 560.164 801.56 552.383 785.049C562.054 781.238 570.144 778.687 580.121 775.64Z"/><path fill="#EE1D23" d="M695.033 624.936C703.146 627.836 721.336 660.875 725.1 669.888C719.015 672.185 712.861 674.297 706.647 676.221L696.485 679.3C692.922 662.769 685.734 645.866 677.832 630.98C684.419 628.988 688.679 627.458 695.033 624.936Z"/><path fill="#EE1D23" d="M641.246 824.28C652.619 824.246 658.946 825.363 669.891 827.441C664.567 835.434 660.044 841.954 654.201 849.555C650.083 854.718 645.771 859.725 641.276 864.564C641.365 851.136 641.355 837.708 641.246 824.28Z"/><path fill="#EE1D23" d="M641.361 591.132C646.429 594.076 667.534 621.135 668.548 626.873L666.471 627.961C658.5 629.836 649.463 630.288 641.293 630.691L641.361 591.132Z"/><path fill="#EE1D23" d="M634.952 591.468C637.112 594.518 636.131 624.882 636.101 630.692C627.995 630.498 619.92 629.64 611.954 628.129L609.486 627.234L609.22 625.981C612.398 617.294 628.546 598.784 634.952 591.468Z"/><path fill="#EE1D23" d="M624.702 824.705C627.178 824.361 633.374 824.374 636.148 824.306L636.104 864.203C633.318 861.491 630.83 858.531 628.268 855.605C620.751 846.743 613.915 837.326 607.817 827.435C613.794 826.208 618.699 825.496 624.702 824.705Z"/><path fill="#EE1D23" d="M674.952 828.632C680.853 830.287 685.898 832.033 691.648 834.054C681.548 843.999 671.035 851.579 659.182 859.199C653.863 862.391 652.04 863.382 646.267 865.511C657.46 854.33 666.398 841.86 674.952 828.632Z"/><path fill="#EE1D23" d="M646.992 589.83C654.575 591.395 689.241 614.404 690.274 620.765L688.845 621.702C684.896 623.256 679.194 624.864 675.03 626.17C666.878 613.181 657.489 601.011 646.992 589.83Z"/><path fill="#EE1D23" d="M628.661 589.904L629.173 590.09L629.466 590.892C617.753 604.309 612.384 610.979 602.599 626.158L591.255 622.652C589.106 621.957 589.041 622.043 587.195 620.574C589.166 613.577 621.02 593.792 628.661 589.904Z"/><path fill="#EE1D23" d="M602.446 828.769C603.444 829.783 606.079 833.909 606.964 835.215C614.488 846.314 622.321 856.198 631.462 866.001C626.401 863.753 623.231 861.994 618.42 859.2C606.196 851.839 596.303 843.765 585.988 834.031C591.871 831.78 596.44 830.462 602.446 828.769Z"/><path fill="#EE1D23" d="M580.145 836.728C581.889 836.858 587.046 841.83 588.855 843.383C598.317 851.511 608.003 858.142 618.698 864.561L605.532 861.561C590.772 858.015 579.341 852.91 566.391 845.278C570.442 842.351 575.787 839.339 580.145 836.728Z"/><path fill="#EE1D23" d="M615.266 591.154L615.621 592.128C601.428 600.602 593.11 606.881 581.212 618.414L574.036 614.498L566.231 609.493C583.011 599.607 596.144 594.705 615.266 591.154Z"/><path fill="#EE1D23" d="M696.175 836.681C700.317 837.776 707.278 842.744 711.054 845.288C698.024 853.206 688.734 856.782 674.375 861.058C669.935 862.24 663.838 863.369 659.226 864.374C674.719 855.156 683.066 848.709 696.175 836.681Z"/><path fill="#EE1D23" d="M660.689 591.003C668.418 592.111 708.744 602.706 709.91 610.025L705.983 612.991L696.443 618.457C685.318 607.313 673.87 599.532 660.689 591.003Z"/><path fill="#EE1D23" d="M671.446 730.529L695.981 730.518C695.867 738.553 695.462 745.381 694.848 753.398L694.083 753.489C691.542 752.107 674.676 733.908 671.446 730.529Z"/><path fill="#EE1D23" d="M582.868 701.085C590.147 708.111 598.059 716.566 604.773 724.119L581.593 724.223C581.63 716.268 581.73 708.972 582.868 701.085Z"/><path fill="#EE1D23" d="M730.031 786.992C739.679 790.816 747.944 795.131 756.872 800.315L751.335 808.268C749.843 810.189 750.754 809.578 748.679 810.388C743.191 807.55 733.983 796.726 730.079 791.486C728.824 789.802 729.491 789.098 730.031 786.992Z"/><path fill="#EE1D23" d="M581.84 624.743C587.719 627.156 593.743 629.06 599.775 631.055C597.339 635.346 595.085 640.119 592.885 644.569L591.895 645.62C589.246 644.892 579.329 633.709 576.58 630.784L581.84 624.743Z"/><path fill="#EE1D23" d="M528.162 643.731C532.104 647.769 546.49 661.435 547.475 665.795L546.62 666.964L544.176 666.382C535.625 662.629 528.98 659.113 520.773 654.636L528.162 643.731Z"/><path fill="#EE1D23" d="M685.679 808.385L700.918 824.343C698.887 826.663 697.62 828.683 694.782 829.615C689.076 827.257 683.726 825.626 677.863 823.777C680.516 818.813 683.122 813.433 685.679 808.385Z"/><path fill="#EE1D23" d="M560.693 612.481C563.934 613.162 574.445 619.864 576.357 623.025L575.042 625.988C573.752 626.251 573.888 626.123 572.523 625.973C569.355 623.281 561.508 616.217 560.693 612.481Z"/><path fill="#EE1D23" d="M703.819 828.134C706.817 829.975 714.083 837.824 716.134 840.744L715.297 842.001C710.374 838.327 703.021 836.058 701.595 831.196L703.819 828.134Z"/><path fill="white" d="M626.824 1293.86L670.677 1293.84C681.178 1329.4 689.572 1358.33 697.399 1394.72C704.614 1361.18 716.211 1326.37 726.775 1293.87L769.63 1293.85C773.576 1339.31 775.267 1392.89 777.654 1438.98L745.614 1439.1C743.617 1411.4 742.432 1371.04 742.276 1343.19L741.67 1324.2C731.841 1361.95 719.55 1399.3 707.813 1436.53L682.144 1436.52C671.852 1404.02 659.76 1356.78 653.402 1323.84L648.214 1439L617.568 1439.08C619.944 1391.27 623.755 1341.73 626.824 1293.86Z"/><path fill="white" d="M386.192 1293.47C409.862 1291.09 453.253 1290.21 465.629 1315.15C469.338 1322.75 469.859 1331.52 467.077 1339.5C463.052 1350.84 455.361 1355.7 445.18 1360.6C475.17 1370.55 483.564 1401.02 462.192 1424.18C460.958 1425.33 459.686 1426.43 458.377 1427.5C437.821 1443.98 391.129 1441.11 366.008 1438.28C365.145 1391.97 365.824 1342.29 366.041 1295.81C372.642 1294.5 379.477 1294.06 386.192 1293.47ZM398.834 1415.47C411.211 1416.04 421.884 1417.16 432.531 1409.92C439.977 1401.98 443.552 1391.21 434.212 1382.82C424.643 1374.23 410.83 1374.36 398.773 1374.86L398.834 1415.47ZM398.826 1317.65L398.831 1351.28C408.638 1351.34 414.142 1351.6 423.757 1349.15C446.771 1337.43 435.358 1315.93 410.424 1316.77L398.826 1317.65Z"/><path fill="white" d="M836.265 1293.87C850.595 1293.7 865.266 1293.85 879.624 1293.85L924.493 1438.9C913.403 1439.35 900.476 1439.09 889.244 1439.15C885.434 1428.12 881.652 1414.4 878.209 1403.05L877.767 1402.29C873.811 1401.18 843.192 1401.85 836.624 1401.95L826.282 1439.04L792.059 1439.04C805.829 1391.04 821.837 1341.93 836.265 1293.87ZM841.418 1377.03L858.287 1377.04L873.058 1377.02C870.373 1367.94 859.294 1324.25 856.409 1319.38C852.039 1338.75 847.04 1357.98 841.418 1377.03Z"/><path fill="white" d="M515.978 1293.47C539.526 1292.23 570.825 1289.84 588.765 1308.07C604.976 1324.55 603.672 1356.94 586.739 1372.55C570.943 1387.11 549.715 1388.25 529.434 1387.47L529.013 1387.69C527.433 1393.64 528.559 1430.45 528.575 1438.97L496.147 1439.12C495.319 1392.38 495.991 1342.7 496.166 1295.82C502.558 1294.54 509.458 1294.08 515.978 1293.47ZM528.596 1361.86C540.487 1362.5 549.656 1363.45 559.957 1356.28C564.135 1351.91 568.537 1344.48 568.141 1338.48C566.769 1317.67 544.715 1316.64 530.528 1318.5L528.919 1319.45C527.994 1326.44 528.564 1353.8 528.596 1361.86Z"/><path fill="white" d="M241.777 1249.89C299.622 1248.99 359.797 1249.82 417.794 1249.82L761.964 1249.82L947.984 1249.84L1006.03 1249.74C1015.7 1249.72 1029.52 1249.29 1038.94 1250.11C1040.07 1251.78 1039.76 1254.31 1039.85 1256.66L491.116 1256.64L325.126 1256.64C302.379 1256.63 264.639 1257.92 242.894 1256.44C241.487 1254.6 241.898 1252.61 241.777 1249.89Z"/><path fill="white" d="M327.322 1051.44C362.82 1047.88 378.13 1078.33 363.768 1109.39C359.82 1117.92 350.19 1122.82 341.333 1125.21C291.003 1131.72 283.805 1063.36 327.322 1051.44ZM338.569 1112.24C341.948 1110.52 344.772 1108.95 346.755 1105.61C356.274 1089.54 352.824 1062.42 329.063 1064.67C309.389 1076.25 312.598 1115.38 338.569 1112.24Z"/><path fill="white" d="M654.51 1052.09L676.654 1052.1C681.774 1069.43 686.23 1084.37 689.771 1102.14C694.32 1084.34 698.862 1069.46 704.53 1052.08L726.181 1052.1L730.008 1124.64L714.065 1124.68C712.647 1110.79 712.451 1089.32 712.292 1075.18C712.291 1073.24 712.087 1071.24 711.935 1069.31C710.594 1072.45 707.843 1082.8 706.601 1086.86L695.132 1123.54L682.232 1123.54C676.989 1105.45 672.193 1087.23 667.847 1068.9C667.317 1087.38 666.173 1106.1 665.501 1124.64L649.959 1124.64L654.51 1052.09Z"/><path fill="white" d="M1003.12 1051.64C1034.07 1047.91 1056.19 1072.15 1027.59 1090.66C1036.85 1095.71 1039.64 1114.6 1042.48 1124.61L1025.48 1124.71L1022.57 1115.55C1019.38 1101.97 1019.82 1095.87 1004.21 1096.32L1004.2 1124.66L987.777 1124.67C987.242 1101.46 987.735 1076.38 987.748 1053.03C992.491 1052.31 998.265 1052.02 1003.12 1051.64ZM1004.25 1084.28C1009.3 1084.39 1013.72 1084.34 1018.6 1082.67C1022.43 1078.96 1026.47 1073.26 1021.58 1068.21C1017.04 1063.53 1012.29 1063.98 1006.31 1063.94L1004.65 1064.92C1003.72 1069.3 1004.21 1079.27 1004.25 1084.28Z"/><path fill="white" d="M576.242 1052.09L597.933 1052.09L620.554 1124.6L602.541 1124.69L597.048 1106.5C595.006 1105.65 579.645 1106.08 576.535 1106.11L571.318 1124.75L554.097 1124.61C561.716 1101.42 569.08 1075.58 576.242 1052.09ZM579.144 1093.56L589.579 1093.56L593.494 1093.39L594.08 1092.45C592.664 1086.95 588.481 1070.12 586.211 1065.96C584.025 1075.2 581.669 1084.4 579.144 1093.56Z"/><path fill="white" d="M934.086 1052.07L955.907 1052.09L978.295 1124.62L960.546 1124.71L955.241 1107.17L954.412 1106.35C949.492 1105.66 939.722 1106.05 934.422 1106.11L929.326 1124.77L911.955 1124.62C919.491 1100.49 926.868 1076.3 934.086 1052.07ZM936.877 1093.47L947.025 1093.57L951.858 1093.41C952.266 1092.37 945.551 1068.63 944.329 1065.86C941.945 1074.89 939.559 1084.58 936.877 1093.47Z"/><path fill="#FECC07" d="M679.101 922.872C686.292 921.439 693.378 919.523 700.31 917.135C710.453 937.602 719.526 946.437 741.028 954.963C719.071 978.103 694.727 986.693 663.872 974.369C677.822 955.622 679.697 946.157 679.101 922.872Z"/><path fill="#FECC07" d="M390.731 702.097C381.134 672.793 386.76 644.97 412.235 625.906C421.253 644.431 429.542 655.881 449.438 664.149C447.253 671.564 445.18 678.317 443.627 685.908C421 683.011 408.233 688.874 390.731 702.097Z"/><path fill="#FECC07" d="M575.738 916.668C582.66 919.103 589.748 921.037 596.947 922.454C596.164 946.264 598.672 956.117 613.348 975.367C583.882 985.752 556.222 978.59 536.953 953.667C556.56 945.788 566.92 936.109 575.738 916.668Z"/><path fill="#FECC07" d="M437.599 872.878C459.177 875.072 471.604 872.52 489.476 859.681C495.02 865.951 498.985 869.929 505.121 875.644C493.239 894.144 488.863 906.889 492.953 929.406C461.741 923.824 442.463 904.203 437.599 872.878Z"/><path fill="#FECC07" d="M436.382 581.593C443.378 548.484 460.962 532.81 493.233 525.989C491.78 548.326 493.272 559.678 506.496 577.98C500.73 583.371 495.765 588.162 490.317 593.87C489.258 592.971 488.153 592.127 487.008 591.34C470.586 580.118 455.498 578.071 436.382 581.593Z"/><path fill="#FECC07" d="M786.981 860.981C806.351 873.99 817.753 876.775 840.801 873.505C834.731 905.914 815.993 922.93 783.924 928.797C787.027 906.651 783.751 895.2 771.188 876.602C777.374 871.262 781.574 867.005 786.981 860.981Z"/><path fill="#FECC07" d="M785.067 525.359C815.716 531.624 835.877 550.372 840.087 582.056C818.996 579.519 805.774 582.191 788.077 595.042C782.822 589.02 778.175 584.579 772.41 579.057C785.874 560.585 787.535 547.192 785.067 525.359Z"/><path fill="#FECC07" d="M866.266 625.266C889.351 646.953 898.491 671.56 885.683 702.29C869.771 689.826 854.6 684.539 834.264 687.405C833.413 681.612 830.453 671.332 828.603 665.889C849.387 655.959 857.881 646.28 866.266 625.266Z"/><path fill="white" d="M255.119 1051.64C270.046 1050.39 292.636 1053.83 292.746 1073.33C292.773 1080.32 289.879 1087 284.763 1091.75C276.857 1098.96 267.777 1099.36 257.735 1099.05L256.57 1100.26L256.575 1124.64L240.142 1124.68L240.146 1053.06C244.624 1052.3 250.49 1052 255.119 1051.64ZM256.625 1086.11C263.987 1086.38 266.65 1086.82 273.009 1082.69C282.114 1067.43 269.555 1063.61 256.531 1064.68L256.625 1086.11Z"/><path fill="white" d="M594.302 1160.43C631.886 1154.63 637.135 1205.5 606.702 1215.71C571.083 1220.21 564.492 1173.15 594.302 1160.43ZM606.023 1209.83C625.867 1198.01 621.948 1163.31 595.934 1166.15C576.004 1177.45 580.032 1212.94 606.023 1209.83Z"/><path fill="white" d="M284.474 1160.48C287.699 1160.3 290.793 1160.19 294.018 1160.18C323.128 1160.07 332.332 1193.02 310.831 1210.87C300.227 1217.03 288.741 1215.99 277.012 1215.4C276.963 1205.77 276.122 1170.21 277.432 1162.2C279.638 1160.57 281.44 1160.85 284.474 1160.48ZM284.286 1209.53C293.432 1210.42 298.422 1210.36 306.548 1205.83C322.656 1189.52 315.165 1165.02 289.492 1166.02C288.455 1166.06 287.42 1166.12 286.385 1166.18L284.762 1167.1C283.72 1172.32 284.245 1201.96 284.286 1209.53Z"/><path fill="white" d="M764.602 1160.49C768.708 1160.27 772.81 1159.99 776.912 1160.3C804.769 1162.36 811.431 1194.3 790.808 1211.03C780.079 1217 769.094 1216.01 757.323 1215.37C757.277 1202.71 756.404 1173.36 757.64 1162.02C759.068 1160.74 762.507 1160.72 764.602 1160.49ZM764.636 1209.77C774.117 1210.16 779.587 1210.48 787.684 1205.09C803.835 1186.99 793.545 1163.4 766.504 1166.34L764.898 1167.35C763.927 1176.66 764.582 1199.71 764.636 1209.77Z"/><path fill="white" d="M492.839 1051.49C503.369 1050.51 509.286 1050.95 519.281 1053.83L515.906 1067.06C506.592 1064.51 494.421 1063.07 487.393 1069.29C470.577 1084.19 479.472 1115.21 504.995 1111.59C508.119 1111.15 513.161 1110.41 515.803 1110.84L516.483 1113L518.325 1123C517.452 1123.27 516.573 1123.53 515.687 1123.76C503.762 1126.9 488.749 1127.04 477.866 1120.5C453.43 1105.81 456.859 1064.87 483.485 1054.36C486.675 1053.1 489.512 1052.32 492.839 1051.49Z"/><path fill="white" d="M853.05 1052.07L908.843 1052.1C909.083 1056.52 908.938 1061.56 908.908 1066.05L888.963 1066.18L889.021 1103.23L888.873 1124.66L872.621 1124.66L872.435 1066.15L853.015 1066.13L853.05 1052.07Z"/><path fill="white" d="M379.583 1052.09L396.244 1052.1L396.375 1110.74L424.862 1110.82L424.878 1124.68L379.61 1124.66C379.463 1100.47 379.454 1076.28 379.583 1052.09Z"/><path fill="white" d="M773.104 1052.07L789.708 1052.1L789.733 1110.72L818.493 1110.85L818.589 1124.73C804.27 1124.25 787.581 1124.66 773.083 1124.67L773.104 1052.07Z"/><path fill="white" d="M461.274 1160.5C469.589 1160.06 482.318 1159.13 488.074 1166.79C492.239 1172.33 490.592 1182.98 484.661 1186.71C483.318 1187.55 482.648 1188.09 481.672 1189.35C484.876 1194.29 493.95 1209.91 491.057 1215.59C488.116 1215.76 487.96 1215.8 485.194 1214.93C482.995 1212.81 482.726 1209.65 482.003 1206.5C479.495 1193.24 477.184 1191.59 463.784 1191.78C463.804 1197.06 464.128 1209.86 463.546 1214.48L461.861 1215.53C459.192 1215.64 458.988 1215.76 456.799 1214.43C455.923 1206.48 456.282 1170.59 456.665 1162.23C458.078 1160.6 458.533 1161.03 461.274 1160.5ZM463.797 1186.31C470.698 1186.28 473.935 1186.74 480.058 1183.4C489.61 1168.85 475.961 1165.12 463.774 1166.22L463.797 1186.31Z"/><path fill="white" d="M869.643 1160.41C891.255 1159.69 910.04 1165.74 889.816 1189.38C893.029 1195.1 901.321 1209.03 898.043 1215.08C895.545 1215.99 895.684 1215.95 893.097 1215.22C890.598 1213.1 890.392 1209.91 889.616 1206.51C886.796 1192.98 884.805 1191.62 871.216 1191.79C871.277 1197.89 871.651 1207.83 870.976 1214.01C870.884 1214.85 869.814 1215.09 868.797 1215.6C865.699 1215.46 866.732 1215.92 864.414 1214.22C863.505 1206.47 863.728 1170.29 864.3 1162.24C865.891 1160.56 866.779 1160.95 869.643 1160.41ZM871.253 1186.32C878.09 1186.27 881.65 1186.77 887.648 1183.37C897.076 1169.09 883.636 1164.94 871.353 1166.3C871.242 1172.97 871.209 1179.65 871.253 1186.32Z"/><path fill="white" d="M434.388 1052.06L450.941 1052.08C451.62 1074.92 451.182 1101.74 450.943 1124.67L434.398 1124.67C433.625 1102.12 434.223 1074.7 434.388 1052.06Z"/><path fill="white" d="M528.78 1052.08L545.413 1052.1L545.455 1124.68L528.784 1124.67C528.467 1100.77 528.773 1076.03 528.78 1052.08Z"/><path fill="white" d="M827.883 1052.08L844.513 1052.11L844.543 1124.7L827.876 1124.67L827.883 1052.08Z"/><path fill="white" d="M742.47 1052.09L758.931 1052.1C759.247 1076.1 758.965 1100.65 758.944 1124.69L742.487 1124.66C742.153 1100.8 742.467 1076.02 742.47 1052.09Z"/><path fill="white" d="M928.691 1160.41C931.239 1160.35 933.363 1160.14 935.855 1160.71C938.712 1163.73 954.678 1209.13 955.362 1214.5C953.8 1216.1 954.004 1215.61 951.271 1216.09C944.221 1213.53 946.856 1205.29 941.694 1198.63L938.712 1198.3L923.119 1198.37C922.089 1201.56 918.724 1213.22 917.011 1215.09C914.253 1215.93 914.166 1215.92 911.408 1215.28L910.715 1214.09C913.766 1201.57 924.056 1173.16 928.691 1160.41ZM924.828 1192.54L935.387 1192.53C937.781 1192.45 938.751 1192.88 940.208 1191.69C938.921 1187.26 934.344 1171.69 932.386 1168.32C930.093 1176.46 927.572 1184.54 924.828 1192.54Z"/><defs><linearGradient id="gradient_0" gradientUnits="userSpaceOnUse" x1="932.27167" y1="1190.0946" x2="932.17792" y2="1169.2925"><stop offset="0" stop-color="white" stop-opacity="0"/><stop offset="1" stop-color="white" stop-opacity="0.031372551"/></linearGradient></defs><path fill="url(#gradient_0)" d="M932.386 1168.32C934.344 1171.69 938.921 1187.26 940.208 1191.69C938.751 1192.88 937.781 1192.45 935.387 1192.53L924.828 1192.54C927.572 1184.54 930.093 1176.46 932.386 1168.32Z"/><path fill="white" d="M711.112 1160.53C718.598 1160.42 733.099 1159.73 739.864 1160.97L740.665 1162.2C739.643 1168.94 733.308 1166.66 727.985 1166.88C724.815 1167.01 721.437 1166.87 718.244 1166.87L718.267 1183.67L738.066 1183.84C739.868 1185.09 739.294 1184.68 740.024 1187.4C736.948 1192.29 724.052 1187.38 718.974 1190.82C718.084 1191.43 718.327 1193.45 718.251 1194.85L718.264 1209.23C725.307 1209.37 740.196 1206.18 741.959 1213.77L741.032 1215.01C735.441 1216.31 717.574 1215.62 711.049 1215.54C710.879 1197.2 710.9 1178.87 711.112 1160.53Z"/><path fill="white" d="M817.906 1160.46C825.436 1160.51 839.058 1159.71 845.965 1160.74C847.658 1162.17 847.127 1161.59 847.407 1164.55L846.169 1165.96C841.684 1167.43 830.425 1166.88 825.04 1166.86L825.059 1183.68C830.865 1183.74 846.419 1180.98 846.815 1188.1C842.769 1192.8 831.538 1187.18 825.377 1190.67L825.055 1192.93L825.052 1209.25C831.226 1209.16 844.036 1208.41 849.322 1210.73L849.613 1213.71C845.394 1216.98 824.693 1215.59 817.87 1215.52L817.906 1160.46Z"/><path fill="white" d="M373.074 1160.36C377.678 1159.8 387.89 1159.14 391.351 1162.65L391.294 1165.33C387.517 1169.99 380.512 1164.5 376.397 1166.11C350.332 1176.33 392.31 1184.31 393.51 1197.4C394.577 1209.04 390.437 1212.92 379.054 1216.16C374.639 1216.37 363.922 1216.07 360.962 1212.55C361.19 1200.07 372.486 1214.82 381.229 1208.99C392.005 1201.81 385.526 1193.94 376.069 1190.3C359.414 1183.91 354.847 1168.51 373.074 1160.36Z"/><path fill="white" d="M665.087 1160.52C672.509 1160.39 687.448 1159.68 694.24 1161.11C695.175 1163.31 694.996 1162.11 694.18 1164.85C690.63 1168.24 678.394 1166.86 672.333 1166.87L672.386 1184.4C677.764 1184.33 687.062 1183.73 691.709 1185.07C693.594 1187.14 693.065 1186.2 692.906 1189.87L691.576 1190.78L672.331 1190.91L672.308 1214.45C670.625 1215.94 669.083 1215.3 666.225 1215.19C663.881 1212.21 665.041 1167.79 665.087 1160.52Z"/><path fill="white" d="M404.435 1160.54C410.153 1160.47 440.926 1159.19 443.628 1161.69C443.879 1164.3 444.338 1164.28 443.253 1166.03C439.367 1167.35 431.811 1166.91 427.427 1166.88L427.464 1201.29C427.484 1205.71 427.568 1210.16 427.314 1214.57L425.709 1215.59C422.992 1215.73 422.551 1215.95 420.37 1214.58C419.156 1204.34 419.898 1178.59 419.916 1166.83C415.737 1166.92 406.448 1167.77 403.646 1165.29C403.298 1162.24 403.206 1163.44 404.435 1160.54Z"/><path fill="white" d="M526.744 1160.54C532.983 1160.46 562.706 1159.36 566.548 1161.49C566.687 1164.65 567.124 1163.83 565.621 1165.97C561.788 1167.57 554.588 1166.9 550.098 1166.85L550.1 1200.46C550.193 1204.25 551.032 1212.77 548.691 1215.46C545.478 1215.41 545.012 1216.01 543.237 1214.42C542.016 1205.82 542.749 1177.52 542.755 1166.82C538.152 1166.69 529.681 1168.04 526.37 1165.53C525.736 1163.27 526.074 1162.77 526.744 1160.54Z"/><path fill="white" d="M970.291 1160.5C972.922 1160.51 975.368 1160.2 977.227 1161.54C978.324 1171.61 977.593 1197.96 977.558 1209.23C984.919 1209.4 992.809 1208.03 999.325 1209.86C1001.37 1211.87 1000.68 1211.5 1000.8 1215.43C990.92 1215.71 980.238 1215.52 970.297 1215.53C970.014 1197.44 970.283 1178.65 970.291 1160.5Z"/><path fill="white" d="M337.554 1160.47C340.082 1160.41 342.32 1160.05 344.428 1161.35C345.35 1166.6 344.818 1207.38 344.801 1215.55C341.893 1215.58 339.797 1215.93 337.837 1214.4C336.568 1202.81 337.488 1173.36 337.554 1160.47Z"/><path fill="white" d="M506.527 1160.47C509.095 1160.42 511.026 1160.14 513.378 1161.12C514.606 1172.39 513.75 1202.89 513.728 1215.56C510.737 1215.59 508.687 1216.02 506.711 1214.32C505.49 1202.95 506.447 1173.18 506.527 1160.47Z"/><path fill="white" d="M443.802 1034.98C449.342 1034.93 455.107 1035.11 460.665 1035.19C457.358 1039.2 451.957 1044.37 448.196 1048.18C444.426 1048.86 438.5 1048.54 434.474 1048.46C437.595 1043.7 440.418 1039.55 443.802 1034.98Z"/></svg>