<?xml version="1.0" encoding="utf-8" ?><svg xmlns="http://www.w3.org/2000/svg" xmlns:xlink="http://www.w3.org/1999/xlink" width="1276" height="1702" viewBox="0 0 1276 1702"><path fill="#FECC06" d="M635.259 291.73C636.087 284.272 636.983 274.959 639.056 267.822C641.155 277.277 642.001 290.655 642.91 300.587C648.264 344.113 653.104 387.157 662.94 429.976C663.904 434.169 667.243 452.612 669.631 454.971C672.376 459.988 674.372 468.352 675.984 474.069C702.773 468.856 732.968 477.704 745.469 503.675C757.126 503.632 765 505.764 773.659 514.108C778.735 518.998 774.855 521.411 780.746 524.775C781.071 523.96 781.873 520.989 782.792 521.104C821.688 525.977 839.823 550.258 844.596 586.291C857.671 593.988 862.853 604.999 864.271 619.771C888.681 633.033 904.299 675.363 889.93 700.74C888.911 702.502 887.856 704.244 886.767 705.964C889.586 714.532 891.373 720.893 893.461 729.671C898.961 732.206 902.048 733.352 907.835 735.169C910.817 735.786 913.78 736.486 916.723 737.268C923.625 737.463 934.703 740.423 940.847 743.927C943.616 743.171 942.221 743.196 945.168 744.16L946.001 745.938C945.323 747.537 944.546 749.309 942.584 749.769C926.337 753.579 910.107 758.251 894.27 763.603C896.845 799.433 891.301 811.507 864.112 834.749C862.891 849.622 858.737 858.424 846.563 867.327C845.187 902.981 815.664 932.932 779.634 933.201C771.384 947.202 764.874 950.009 749.223 952.699C736.629 969.746 720.141 982.297 698.723 985.728C686.685 987.656 671.03 985.738 661.113 978.131C660.319 977.528 659.544 976.899 658.791 976.245C644.404 986.335 634.265 987.416 619.163 978.02C585.608 994.514 551.673 983.653 530.28 953.758C514.192 954.815 505.686 947.229 496.977 934.533C481.371 934.899 465.422 928.344 454.273 917.561C439.663 903.431 435.655 889.776 432.654 870.486C417.995 856.713 416.083 854.399 412.037 834.904C394.748 818.882 384.968 806.347 384.107 781.359C383.935 776.364 384.503 764.316 386.64 759.913C377.424 757.544 367.972 754.191 358.271 751.712C350.568 749.243 340.39 746.977 332.155 744.595C345.189 742.967 376.847 733.319 385.258 733.204C386.253 725.593 388.352 718.95 390.606 711.683C381.802 688.377 379.563 661.565 394.779 640.721C401.012 632.182 406.171 625.893 415.213 620.397C417.28 600.721 418.961 598.228 433.569 585.94C436.849 570.913 437.513 562.259 447.695 548.543C456.005 537.349 470.803 528.743 484.595 526.897C485.953 526.115 485.762 526.395 487.546 526.273C489.243 525.434 491.523 524.641 493.402 524.589C500.721 524.385 500.324 519.752 504.914 514.428C511.597 506.677 522.485 504.348 532.123 503.338C540.691 489.658 547.501 483.705 562.896 477.145C573.008 472.836 593.694 469.99 603.819 474.39C605.658 470.894 609.115 455.493 610.282 450.824C623.295 398.766 630.445 345.135 635.259 291.73Z"/><path fill="#FEFEFE" d="M940.847 743.927C943.616 743.171 942.221 743.196 945.168 744.16L946.001 745.938C945.323 747.537 944.546 749.309 942.584 749.769C926.337 753.579 910.107 758.251 894.27 763.603C896.845 799.433 891.301 811.507 864.112 834.749C862.891 849.622 858.737 858.424 846.563 867.327C845.187 902.981 815.664 932.932 779.634 933.201C771.384 947.202 764.874 950.009 749.223 952.699C736.629 969.746 720.141 982.297 698.723 985.728C686.685 987.656 671.03 985.738 661.113 978.131C660.319 977.528 659.544 976.899 658.791 976.245C644.404 986.335 634.265 987.416 619.163 978.02C585.608 994.514 551.673 983.653 530.28 953.758C514.192 954.815 505.686 947.229 496.977 934.533C481.371 934.899 465.422 928.344 454.273 917.561C439.663 903.431 435.655 889.776 432.654 870.486C417.995 856.713 416.083 854.399 412.037 834.904C394.748 818.882 384.968 806.347 384.107 781.359C383.935 776.364 384.503 764.316 386.64 759.913L388.278 761.234C385.278 791.339 386.712 808.866 411.317 829.272C420.575 808.225 428.163 799.801 448.422 788.556C449.408 788.008 446.233 785.711 449.666 784.29C453.057 785.048 453.48 785.322 456.395 787.243C466.372 791.201 475.181 796.14 484.724 800.954C487.061 802.133 494.394 806.119 496.176 806.643C499.596 808.817 521.645 822.339 524.428 823.323C559.499 848.338 579.799 861.908 611.324 894.066L610.266 891.136C609.685 880.013 608.584 876.46 618.193 869.244L659.974 869.247C668.662 877.029 669.957 884.203 665.662 894.91C676.89 883.708 690.556 871.191 702.474 860.773C705.006 859.046 707.806 856.846 710.212 854.918C722.751 844.874 736.194 836.165 749.079 826.585C771.478 813.422 797.074 797.442 821.03 787.909C821.486 787.557 828.551 783.754 829.468 783.251C834.164 777.515 885.095 759.157 893.28 759.398C897.706 758.578 938.237 746.9 941.265 745.531L940.847 743.927Z"/><path fill="#142049" d="M456.395 787.243C466.372 791.201 475.181 796.14 484.724 800.954C487.061 802.133 494.394 806.119 496.176 806.643C499.596 808.817 521.645 822.339 524.428 823.323C559.499 848.338 579.799 861.908 611.324 894.066C606.466 901.059 596.991 888.508 597.705 914.928C583.195 911.503 569.099 906.518 555.663 900.06C506.066 876.217 474.406 838.682 456.395 787.243Z"/><path fill="#FEFEFE" d="M537.936 855.627C540.743 861.866 539.985 861.58 546.1 862.854C547.657 864.927 544.603 865.545 543.465 867.999C543.577 867.758 543.429 873.06 543.417 873.336C541.196 873.173 540.082 871.807 538.024 870.295C535.841 871.995 535.312 872.621 532.742 873.443C531.882 869.831 531.111 866.038 530.319 862.395C534.643 862.647 535.999 859.949 537.548 856.501L537.936 855.627Z"/><path fill="#FEFEFE" d="M572.67 878.269C574.911 882.21 576.66 883.005 580.479 885.444C577.179 890.815 578.017 888.422 578.563 895.435L577.821 895.976L572.776 892.571C570.89 893.961 568.886 895.731 566.674 896.287C567.399 893.353 567.618 892.702 567.664 889.727C565.975 888.125 565.095 887.53 564.139 885.377L565.6 884.082C571.279 883.401 570.48 882.954 572.67 878.269Z"/><path fill="#FEFEFE" d="M505.775 826.555C506.535 827.244 508.759 830.96 509.681 832.259C511.655 832.797 512.434 832.891 514.179 834.043C509.354 840.171 511.393 836.082 511.776 843.449L510.611 843.854L506.439 841.244C504.208 842.313 502.766 843.539 500.786 843.063C501.087 837.073 501.303 838.187 497.33 834.21L497.361 833.093C504.183 832.025 503.139 832.397 505.775 826.555Z"/><path fill="#142049" d="M749.079 826.585C771.478 813.422 797.074 797.442 821.03 787.909C802.423 839.476 769.423 878.235 719.458 901.647C706.856 907.508 693.645 911.96 680.064 914.92C680.02 898.819 681.087 899.365 665.662 894.91C676.89 883.708 690.556 871.191 702.474 860.773C705.006 859.046 707.806 856.846 710.212 854.918C722.751 844.874 736.194 836.165 749.079 826.585Z"/><path fill="#FEFEFE" d="M704.222 877.288C705.535 880.121 705.721 880.813 707.73 883.116C709.659 883.374 712.63 883.646 713.392 885.591L709.26 889.689C709.694 891.731 710.131 893.653 710.418 895.726C708.689 895.882 706.958 894.341 705.356 893.289C703.919 892.815 702.277 894.629 699.564 895.585L698.962 894.635C699.93 888.28 699.018 889.708 695.141 885.714L695.888 884.511L700.736 884.015C702.726 882.336 703.278 879.837 704.222 877.288Z"/><path fill="#FEFEFE" d="M739.116 855.64C743.93 861.58 737.695 857.118 746.847 862.784C747.834 865.782 747.133 864.046 744.824 867.186C744.785 869.439 744.752 871.278 744.727 872.702L743.759 873.166L739.972 871C738.184 871.375 737.405 872.561 734.878 872.727C734.339 866.592 734.903 868.09 730.756 864.136L730.845 862.951C737.62 861.6 736.758 861.952 739.116 855.64Z"/><path fill="#FEFEFE" d="M771.106 825.906C774.765 830.483 770.913 831.139 778.615 833.294L778.733 834.733L775.966 837.911C776.588 840.216 777.056 841.257 776.748 843.652C774.851 843.839 773.445 842.433 771.497 841.21C769.861 841.946 768.85 842.342 767.154 842.934C765.012 836.175 766.907 838.599 761.809 834.069C766.134 829.606 766.553 836.052 771.106 825.906Z"/><path fill="#FECC06" d="M829.468 783.251C834.164 777.515 885.095 759.157 893.28 759.398L890.178 761.186C889.904 762.679 891.272 773.91 891.349 777.357C891.83 798.744 882.006 816.381 865.353 829.467C856.656 811.334 847.94 798.537 829.126 790.975C827.929 790.494 829.446 784.83 829.468 783.251Z"/><path fill="#FECC06" d="M766.416 880.827C769.569 883.417 773.726 894.605 774.888 898.714C784.808 933.771 762.988 960.683 728.244 938.793C718.456 931.074 713.696 925.558 707.454 914.894C733.108 904.761 744.61 897.503 766.416 880.827Z"/><path fill="#FECC06" d="M451.034 796.004C452.169 797.542 458.954 814.097 460.703 817.541C468.138 832.185 475.599 842.519 485.62 855.358C474.143 861.601 467.023 864.064 454.057 865.866C413.794 866.853 410.333 832.308 434.545 808.715C439.948 803.45 444.856 800.13 451.034 796.004Z"/><path fill="#FECC06" d="M826.165 796.076C830.56 798.57 834.725 801.451 838.61 804.683C865.098 827.161 868.541 864.609 825.25 865.742C810.859 864.249 804.357 862.064 791.641 855.513C807.601 837.276 817.331 818.435 826.165 796.076Z"/><path fill="#FECC06" d="M603.942 923.898C628.593 927.295 648.376 928.386 673.065 923.926C672.018 939.084 669.361 950.13 661.898 963.308C661.441 963.989 660.976 964.664 660.501 965.333C650.884 978.855 636.274 981.301 622.817 971.44C609.175 961.444 606.129 939.665 603.942 923.898Z"/><path fill="#FECC06" d="M510.626 880.577C531.358 896.823 546.119 905.666 570.472 915.017C565.227 923.34 558.501 930.111 551.15 936.536C520.075 960.61 495.175 940.498 501.609 904.536C503.251 895.354 506.492 888.775 510.626 880.577Z"/><path fill="#FECC06" d="M575.841 916.617C583.178 919.154 589.367 920.741 596.925 922.335C596.374 947.679 598.902 955.038 613.366 975.483C600.137 979.688 590.301 980.98 576.624 978.876C559.649 975.833 547.5 966.724 536.968 953.54C557.768 945.515 566.048 935.621 575.841 916.617Z"/><path fill="#FECC06" d="M698.674 917.488C701.416 917.483 703.71 923.274 705.176 925.92C713.945 941.754 725.128 948.181 741.042 955.028C729.606 966.233 721.307 973.175 705.696 977.958C691.197 982.256 677.617 979.12 663.909 974.333C678.05 954.558 679.303 946.746 679.14 922.907C686.245 921.209 691.711 919.695 698.674 917.488Z"/><path fill="#FECC06" d="M489.021 860.037C490.453 860.569 502.716 873.229 505.061 875.453C492.481 896.456 489.386 905.648 492.901 929.543C482.19 927.189 475.064 924.623 465.668 919.125C447.606 906.969 442.117 893.317 437.406 873.005C459.89 874.941 470.385 872.325 489.021 860.037Z"/><path fill="#FECC06" d="M786.917 860.868C806.557 874.222 817.562 876.537 841.032 873.408C836.203 893.095 831.431 904.348 815.141 916.787C804.72 923.671 795.567 926.003 783.785 929.021C787.909 907.33 782.31 894.087 771.185 876.512C777.476 870.842 781.274 867.17 786.917 860.868Z"/><path fill="#FECC06" d="M605.943 900.965C626.668 900.809 651.497 899.179 671.752 902.78C678.447 903.97 674.138 915.779 671.571 919.694C653.319 920.218 635.112 919.902 616.872 919.718C603.148 919.579 597.312 914.101 605.943 900.965Z"/><path fill="#FECC06" d="M619.334 874.345C629.536 874.253 652.385 871.433 660.589 877.981C665.055 881.546 662.352 890.252 657.815 894.139C644.465 894.682 600.445 900.154 619.334 874.345Z"/><path fill="#FEFEFE" d="M532.123 503.338C540.691 489.658 547.501 483.705 562.896 477.145C573.008 472.836 593.694 469.99 603.819 474.39L604.579 476.67C604.198 485.279 590.573 531.254 584.742 536.09C583.905 537.992 581.897 542.942 580.841 544.383C577.31 557.039 562.145 583.62 555.748 596.752L555.176 597.47C543.707 611.989 535.298 628.16 522.238 643.789C511.614 656.502 497.532 667.023 488.983 677.156C474.678 687.807 463.15 696.46 447.741 705.529L440.433 710.238C432.966 716.741 398.686 731.28 388.872 731.976L385.258 733.204C386.253 725.593 388.352 718.95 390.606 711.683C381.802 688.377 379.563 661.565 394.779 640.721C401.012 632.182 406.171 625.893 415.213 620.397C417.28 600.721 418.961 598.228 433.569 585.94C436.849 570.913 437.513 562.259 447.695 548.543C456.005 537.349 470.803 528.743 484.595 526.897C485.953 526.115 485.762 526.395 487.546 526.273C489.243 525.434 491.523 524.641 493.402 524.589C500.721 524.385 500.324 519.752 504.914 514.428C511.597 506.677 522.485 504.348 532.123 503.338Z"/><path fill="#142049" d="M447.741 705.529C452.336 679.738 455.602 663.589 467.806 639.661C491.364 594.179 532.021 559.909 580.841 544.383C577.31 557.039 562.145 583.62 555.748 596.752L555.176 597.47C543.707 611.989 535.298 628.16 522.238 643.789C511.614 656.502 497.532 667.023 488.983 677.156C474.678 687.807 463.15 696.46 447.741 705.529Z"/><path fill="#FEFEFE" d="M536.232 579.742C538.833 584.599 538.566 584.923 543.564 586.589L544.49 586.893C546.017 589.628 541.817 591.134 541.916 594.319C541.947 595.322 541.895 595.817 541.774 596.766L541.664 597.733C539.64 597.655 538.539 596.274 536.65 594.841L531.743 598.055C529.818 596.636 531.531 594.716 531.273 592.555C531.338 593.102 527.741 588.285 527.345 587.666C528.92 586.212 529.62 586.7 532.415 586.511C535.09 584.517 534.856 583.31 536.232 579.742Z"/><path fill="#FEFEFE" d="M485.059 645.521C489.568 650.048 483.501 650.697 493.88 652.165L494.048 653.259L491.021 656.254C490.12 658.453 490.458 660.258 490.577 662.659L489.527 662.994L485.947 660.659C482.105 661.19 483.124 663.012 480.118 662.282C479.318 657.104 479.781 657.169 476.032 653.188L476.305 652.342C483.19 651.283 482.193 651.548 485.059 645.521Z"/><path fill="#FEFEFE" d="M506.665 609.716C506.636 609.688 513.557 618.179 513.736 618.696L511.916 621.458C512.565 624.12 512.799 624.651 512.679 627.336C509.887 627.888 509.992 624.356 506.094 624.783C504.315 626.148 502.924 627.5 500.787 628.053C503.595 617.662 499.115 621.168 498.734 616.603C504.829 614.672 504.297 615.406 506.665 609.716Z"/><path fill="#FECC06" d="M484.595 526.897C485.953 526.115 485.762 526.395 487.546 526.273L492.521 526.65C493.483 531.291 493.129 537.414 493.163 542.29C493.262 556.355 498.424 566.896 506.586 578.014C501.239 583.18 495.472 588.557 490.379 593.928C472.744 580.819 458.11 577.689 436.358 581.543C440.959 562.051 447.576 547.419 465.328 536.219C470.43 533 481.388 529.65 484.595 526.897Z"/><path fill="#FECC06" d="M536.488 499.74C557.258 476.204 574.726 473.309 604.579 476.67C604.198 485.279 590.573 531.254 584.742 536.09C583.384 536.126 577.225 537.577 576.775 536.659C566.519 515.742 557.365 509.267 536.488 499.74Z"/><path fill="#FECC06" d="M388.872 731.976C388.549 701.812 417.182 693.979 442.45 692.929C441.283 699.414 440.662 703.634 440.433 710.238C432.966 716.741 398.686 731.28 388.872 731.976Z"/><path fill="#FECC06" d="M524.691 508.044C546.554 508.527 559.064 522.61 570.263 539.697C555.212 546.487 546.274 550.148 531.88 558.764C523.753 564.164 518.064 568.438 510.408 574.506C498.851 553.025 490.913 512.682 524.691 508.044Z"/><path fill="#FECC06" d="M443.788 589.442C460.083 588.294 471.296 592.34 485.719 599.172C471.688 617.355 463.776 629.242 454.65 650.119C453.549 653.062 452.489 656.235 451.441 659.215C435.007 648.44 409.668 625.393 422.604 601.465C426.467 594.318 436.022 590.978 443.788 589.442Z"/><path fill="#FECC06" d="M411.521 626.359C413.731 627.577 421.719 644.277 428.122 650.069C437.398 658.459 437.998 658.851 449.479 664.151C447.371 671.314 445.442 678.528 443.695 685.787C431.059 684.978 425.255 684.86 413.28 688.655C404.173 692.617 398.537 696.542 390.654 702.224C381.523 670.082 386.171 648.344 411.521 626.359Z"/><path fill="#FEFEFE" d="M669.631 454.971C672.376 459.988 674.372 468.352 675.984 474.069C702.773 468.856 732.968 477.704 745.469 503.675C757.126 503.632 765 505.764 773.659 514.108C778.735 518.998 774.855 521.411 780.746 524.775C781.071 523.96 781.873 520.989 782.792 521.104C821.688 525.977 839.823 550.258 844.596 586.291C857.671 593.988 862.853 604.999 864.271 619.771C888.681 633.033 904.299 675.363 889.93 700.74C888.911 702.502 887.856 704.244 886.767 705.964C889.586 714.532 891.373 720.893 893.461 729.671C898.961 732.206 902.048 733.352 907.835 735.169C910.817 735.786 913.78 736.486 916.723 737.268C913.051 738.357 912.408 738.452 908.578 738.501C884.233 732.203 829.28 712.668 811.538 694.915C811.172 694.377 797.089 683.764 795.348 682.479C785.988 675.567 778.429 667.025 769.637 659.72C735.362 621.267 716.653 591.947 696.185 544.003L692.765 535.34L701.908 538.081C710.84 517.572 721.305 510.066 740.6 500.886C736.186 495.287 731.009 490.333 725.223 486.167C708.78 474.537 692.377 473.316 673.043 476.62C672.089 471.668 668.97 459.143 669.631 454.971Z"/><path fill="#142049" d="M696.185 544.003C751.962 564.371 787.442 594.046 813.993 648.524C824.528 670.138 824.496 683.377 829.969 705.433C823.75 702.061 817.605 698.554 811.538 694.915C811.172 694.377 797.089 683.764 795.348 682.479C785.988 675.567 778.429 667.025 769.637 659.72C735.362 621.267 716.653 591.947 696.185 544.003Z"/><path fill="#FEFEFE" d="M792.095 645.605L792.777 646.615C795.574 650.694 794.753 650.056 799.365 652.243L800.422 652.739C800.025 654.709 798.475 657.779 797.709 661.536L797.542 662.388L796.368 662.874L792.575 660.677L788.158 662.845L787.085 662.366C787.257 659.782 787.412 659.232 786.786 656.776C784.968 655.264 784.283 654.866 783.037 652.796C784.464 651.72 786.415 651.841 788.441 651.607C790.451 650.411 791.132 647.864 792.095 645.605Z"/><path fill="#FEFEFE" d="M740.916 579.879C743.661 586.581 743.184 585.322 749.777 587.081L750.275 588.114C745.341 591.909 746.23 591.586 746.626 597.441L745.654 597.886L741.799 595.633C739.468 595.301 739.519 595.936 736.876 597.546L735.656 597.047C736.417 590.861 736.119 591.926 731.866 588.272L732.453 587.033L737.378 586.153C739.495 584.544 739.928 582.45 740.916 579.879Z"/><path fill="#FEFEFE" d="M770.191 609.681C771.242 610.672 772.826 613.81 776.921 617.54C777.483 619.634 775.605 620.507 775.653 621.284C775.788 623.438 776.066 624.704 775.737 627.141C773.528 626.839 772.449 625.614 770.681 624.186L766.215 626.949C762.69 626.149 767.694 623.902 763.211 618.789L762.383 617.86C766.556 614.318 767.884 614.97 770.191 609.681Z"/><path fill="#FECC06" d="M835.139 692.9C851.273 694.221 870.309 697.073 881.511 710.189C887.945 717.722 887.857 722.595 888.894 731.274C893.405 732.672 903.861 736.588 907.835 735.169C910.817 735.786 913.78 736.486 916.723 737.268C913.051 738.357 912.408 738.452 908.578 738.501C884.233 732.203 829.28 712.668 811.538 694.915C817.605 698.554 823.75 702.061 829.969 705.433L837.502 709.798C836.863 704.571 836.24 697.939 835.139 692.9Z"/><path fill="#FECC06" d="M822.268 589.491C832.451 588.062 849.182 591.028 854.401 600.701C867.154 624.342 846.252 646.035 828.382 657.644L827.063 658.205C824.398 656.387 822.018 647.851 820.543 644.512C813.211 627.921 802.753 613.579 791.888 599.145C802.353 594.036 810.79 591.198 822.268 589.491Z"/><path fill="#FECC06" d="M749.235 508.018C786.877 507.819 778.742 551.928 767.067 574.371C761.519 569.805 756.197 565.975 750.388 561.773C734.338 551.477 725.046 546.565 707.263 539.868C718.05 523.686 728.793 510.692 749.235 508.018Z"/><path fill="#FECC06" d="M866.229 625.374C890.243 647.974 897.716 671.11 885.686 702.331C878.414 696.767 873.969 694.148 865.61 690.498C852.933 686.407 847.328 686.183 834.19 687.496C832.725 679.715 830.822 673.441 828.517 665.91C850.22 655.115 856.774 647.137 866.229 625.374Z"/><path fill="#FECC06" d="M785.343 525.523C817.668 531.558 833.952 550.703 840.179 581.88C830.064 581.207 824.697 580.888 814.689 582.338C803.626 585.091 797.417 588.735 788.106 595.012C783.234 589.62 777.608 584.237 772.425 579.089C786.339 558.689 786.623 549.203 785.343 525.523Z"/><path fill="#FEF400" d="M635.259 291.73C636.087 284.272 636.983 274.959 639.056 267.822C641.155 277.277 642.001 290.655 642.91 300.587C642.46 302.345 642.37 303.816 640.998 304.861C639.557 307.243 639.818 320.589 639.365 324.51C640.435 344.068 639.837 370.381 639.857 390.414L639.914 509.347L653.521 509.477C650.1 512.911 646.79 514.944 647.145 519.968C651.704 523.938 656.964 518.62 660.625 515.581C660.615 524.014 660.653 532.447 660.738 540.879C654.367 535.796 652.383 534.893 644.398 533.213L644.73 534.079C646.705 539.134 650.533 543.206 651.173 546.327L649.727 548.158C655.898 551.151 662.079 554.26 664.546 561.422C665.745 564.863 665.455 568.647 663.747 571.865C660.349 578.417 654.21 581.227 647.948 584.165C641.492 584.284 635.958 584.376 629.472 584.008C607.42 588.086 588.662 590.698 568.776 602.214C559.56 607.551 551.952 613.211 543.193 618.819C546.667 613.555 554.587 602.507 555.748 596.752C562.145 583.62 577.31 557.039 580.841 544.383C581.897 542.942 583.905 537.992 584.742 536.09C590.573 531.254 604.198 485.279 604.579 476.67L603.819 474.39C605.658 470.894 609.115 455.493 610.282 450.824C623.295 398.766 630.445 345.135 635.259 291.73Z"/><path fill="#FEFEFE" d="M629.724 547.61C636.932 546.366 642.555 546.434 649.727 548.158C655.898 551.151 662.079 554.26 664.546 561.422C665.745 564.863 665.455 568.647 663.747 571.865C660.349 578.417 654.21 581.227 647.948 584.165C641.492 584.284 635.958 584.376 629.472 584.008C622.985 581.557 616.565 578.247 613.493 571.584C611.898 568.153 611.801 564.213 613.226 560.708C616.371 553.004 622.688 550.278 629.724 547.61Z"/><path fill="#142049" d="M632.391 550.262C642.131 549.992 657.368 551.503 661.426 562.337C662.391 564.84 662.292 567.629 661.151 570.056C658.278 576.301 651.371 578.812 645.444 581.094C618.967 585.006 600.3 561.008 632.391 550.262Z"/><path fill="#FEFEFE" d="M636.752 563.003C641.748 562.849 650.906 562.37 654.491 565.997L653.825 567.264C650.279 569.041 644.836 568.525 640.702 568.472C635.323 568.505 626.755 569.005 622.503 565.618L623.349 564.42C627.091 562.782 632.527 563.072 636.752 563.003Z"/><path fill="#EF1E22" d="M639.914 509.347L653.521 509.477C650.1 512.911 646.79 514.944 647.145 519.968C651.704 523.938 656.964 518.62 660.625 515.581C660.615 524.014 660.653 532.447 660.738 540.879C654.367 535.796 652.383 534.893 644.398 533.213L644.73 534.079C646.705 539.134 650.533 543.206 651.173 546.327L649.727 548.158C642.555 546.434 636.932 546.366 629.724 547.61C627.541 546.621 628.235 547.389 627.277 545.55C628.04 542.998 632.541 535.976 634.267 532.599C625.855 534.951 624.078 535.377 617.683 541.106L617.599 516.076C621.449 518.805 626.667 523.625 630.963 519.876C631.151 515.08 627.479 512.657 624.209 509.483L639.914 509.347Z"/><path fill="#FEFEFE" d="M638.519 516.428C641.641 518.229 640.998 521.52 641.106 524.818C643.202 527.508 645.848 527.234 649.975 528.161L650.397 528.905C648.008 530.505 645.456 530.154 642.201 530.418C640.668 531.841 640.953 537.709 639.87 541.748C637.932 538.477 637.992 537.471 637.988 533.802L637.993 532.738C635.982 529.44 633.304 530.608 627.768 528.436L628.01 527.707C631.385 527.484 633.618 527.623 636.642 526.129C638.615 523.762 638.319 519.782 638.519 516.428Z"/><path fill="#00A851" d="M639.365 324.51C639.818 320.589 639.557 307.243 640.998 304.861C643.518 318.494 644.609 333.552 646.471 347.415C658.968 440.455 680.984 544.653 736.736 621.907C713.829 604.333 697.131 593.081 667.938 587.26C661.156 585.907 654.643 585.341 647.948 584.165C654.21 581.227 660.349 578.417 663.747 571.865C665.455 568.647 665.745 564.863 664.546 561.422C662.079 554.26 655.898 551.151 649.727 548.158L651.173 546.327C650.533 543.206 646.705 539.134 644.73 534.079L644.398 533.213C652.383 534.893 654.367 535.796 660.738 540.879C660.653 532.447 660.615 524.014 660.625 515.581C656.964 518.62 651.704 523.938 647.145 519.968C646.79 514.944 650.1 512.911 653.521 509.477L639.914 509.347L639.857 390.414C639.837 370.381 640.435 344.068 639.365 324.51Z"/><path fill="#00A851" d="M346.159 746.382C358.25 745.465 372.245 745.735 384.557 745.663C416.879 747.431 462.801 746.04 495.867 745.999C503.921 784.73 511.773 801.594 539.127 830.813C536.251 829.266 527.226 824.185 524.428 823.323C521.645 822.339 499.596 808.817 496.176 806.643C494.394 806.119 487.061 802.133 484.724 800.954C475.181 796.14 466.372 791.201 456.395 787.243C453.48 785.322 453.057 785.048 449.666 784.29C446.233 785.711 449.408 788.008 448.422 788.556C428.163 799.801 420.575 808.225 411.317 829.272C386.712 808.866 385.278 791.339 388.278 761.234L386.64 759.913C377.424 757.544 367.972 754.191 358.271 751.712L359.881 750.622L346.159 746.382Z"/><path fill="#FECC06" d="M359.881 750.622C403.255 763.003 444.937 778.139 484.83 799.51C487.217 800.788 495.097 804.661 496.176 806.643C494.394 806.119 487.061 802.133 484.724 800.954C475.181 796.14 466.372 791.201 456.395 787.243C453.48 785.322 453.057 785.048 449.666 784.29C446.233 785.711 449.408 788.008 448.422 788.556C428.163 799.801 420.575 808.225 411.317 829.272C386.712 808.866 385.278 791.339 388.278 761.234L386.64 759.913C377.424 757.544 367.972 754.191 358.271 751.712L359.881 750.622Z"/><path fill="#FEF400" d="M916.723 737.268C923.625 737.463 934.703 740.423 940.847 743.927L941.265 745.531C938.237 746.9 897.706 758.578 893.28 759.398C885.095 759.157 834.164 777.515 829.468 783.251C828.551 783.754 821.486 787.557 821.03 787.909C797.074 797.442 771.478 813.422 749.079 826.585L743.561 827.631C743.043 826.465 750.317 817.285 751.46 815.914C769.938 793.76 775.954 773.12 781.707 745.512C798.44 745.142 911.13 746.844 917.905 744.073C920.362 744.016 921.401 743.897 923.834 743.51L923.695 742.749C919.381 741.019 913.207 739.666 908.578 738.501C912.408 738.452 913.051 738.357 916.723 737.268Z"/><path fill="#FEF400" d="M488.983 677.156C495.548 674.768 507.688 661.703 513.301 656.153C497.551 691.631 493.362 705.652 495.816 745.303L424.868 745.361C412.83 745.359 396.314 744.87 384.557 745.663C372.245 745.735 358.25 745.465 346.159 746.382L359.881 750.622L358.271 751.712C350.568 749.243 340.39 746.977 332.155 744.595C345.189 742.967 376.847 733.319 385.258 733.204L388.872 731.976C398.686 731.28 432.966 716.741 440.433 710.238L447.741 705.529C463.15 696.46 474.678 687.807 488.983 677.156Z"/><path fill="#00A851" d="M781.599 743.927C784.66 720.385 781.509 701.04 773.929 678.602C771.706 672.022 766.49 664.508 765.041 657.279L766.054 656.98C767.135 658.098 768.355 658.839 769.637 659.72C778.429 667.025 785.988 675.567 795.348 682.479C797.089 683.764 811.172 694.377 811.538 694.915C829.28 712.668 884.233 732.203 908.578 738.501C913.207 739.666 919.381 741.019 923.695 742.749L923.834 743.51C921.401 743.897 920.362 744.016 917.905 744.073C874.056 745.091 825.78 744.004 781.599 743.927Z"/><path fill="#FEF400" d="M659.974 869.247C677.907 865.426 686.812 862.061 703.962 855.713L704.5 856.722L702.474 860.773C690.556 871.191 676.89 883.708 665.662 894.91C669.957 884.203 668.662 877.029 659.974 869.247Z"/><path fill="#00A851" d="M567.701 852.735C589.898 862.308 594.232 864.437 618.193 869.244C608.584 876.46 609.685 880.013 610.266 891.136C594.935 876.341 584.039 866.469 567.701 852.735Z"/><path fill="#EF1E22" d="M670.031 632.739L671.948 632.735C679.318 638.451 688.318 670.336 691.503 680.725C681.965 682.833 672.173 684.128 662.498 685.536C655.602 685.62 648.124 686.136 641.193 686.476C641.37 669.577 641.376 652.677 641.211 635.778C651.108 635.836 660.311 634.271 670.031 632.739Z"/><path fill="#EF1E22" d="M621.873 769.068C625.078 768.657 632.493 768.715 636.03 768.65L636.001 818.805C630.241 819.155 607.182 822.812 604.096 821.64C595.197 804.177 591.496 793.066 586.154 774.293C599.561 771.102 608.098 770.048 621.873 769.068Z"/><path fill="#EF1E22" d="M517.558 659.294C523.91 661.593 537.762 669.191 545.229 672.638C537.414 693.717 537.995 701.521 534.83 722.717C532.419 724.595 532.601 723.978 528.896 724.247L500.261 724.267C500.335 697.801 506.513 682.27 517.558 659.294Z"/><path fill="#EF1E22" d="M759.198 659.051C771.738 677.318 776.036 702.308 777.395 724.028L749.598 724.267C746.711 724.344 746.307 724.479 743.656 723.538C741.918 721.18 741.461 713.57 741.093 710.265C739.637 697.18 736.468 685.235 732.39 672.732C742.152 667.88 749.599 664.644 759.198 659.051Z"/><path fill="#EF1E22" d="M500.286 730.477L535.25 730.485C535.516 749.296 539.065 764.256 545.131 781.915L536.748 785.818C530.351 788.871 524.242 792.355 518.044 795.793C505.714 775.562 500.934 753.848 500.286 730.477Z"/><path fill="#EF1E22" d="M742.431 730.484L777.378 730.485C776.719 754.64 772.08 769.326 762.277 790.688C761.065 792.99 761.188 793.021 759.172 794.551C755.405 793.698 736.695 784.083 732.225 781.899C739.456 763.614 740.966 749.793 742.431 730.484Z"/><path fill="#EF1E22" d="M689.296 686.701C691.452 686.49 690.443 686.245 692.327 687.773C695.734 695.379 695.698 715.49 695.843 724.27L665.892 724.324L657.82 716.085C653.115 711.524 640.882 701.148 643.174 693.888C644.311 692.635 645.857 691.288 647.584 691.19C662.201 690.357 674.824 689.48 689.296 686.701Z"/><path fill="#EF1E22" d="M581.689 730.479L611.092 730.477C611.514 730.875 611.932 731.275 612.349 731.678C618.098 737.233 635.767 753.686 635.907 760.804C634.662 763.246 635.496 762.46 632.447 763.49C613.809 763.645 602.852 765.002 584.745 768.93C582.502 754.292 581.859 745.313 581.689 730.479Z"/><path fill="#EF1E22" d="M726.195 674.881C733.585 682.623 736.072 713.099 736.845 724.291L709.281 724.291C706.36 724.495 706 724.634 703.264 723.816C700.37 720.983 698.84 691.442 697.903 684.505C707.488 681.768 716.93 678.556 726.195 674.881Z"/><path fill="#EF1E22" d="M540.333 730.474L576.076 730.487C575.925 743.778 577.146 757.049 579.717 770.09C577.183 770.995 573.84 771.915 571.203 772.727C564.173 775.071 557.181 777.526 550.23 780.093C543.304 759.894 542.44 751.858 540.333 730.474Z"/><path fill="#EF1E22" d="M604.714 632.141C615.995 634.339 624.573 635.557 636.034 635.771C636.101 644.365 636.962 679.827 635.15 685.491C632.548 686.901 632.966 686.391 629.487 686.217C618.402 675.325 606.576 662.285 595.803 650.874C597.987 645.19 601.942 637.742 604.714 632.141Z"/><path fill="#EF1E22" d="M701.504 730.481L737.272 730.491C735.665 747.788 734.358 756.994 729.479 773.443C728.943 775.131 727.612 778.127 726.901 779.884C712.363 774.918 709.906 771.572 699.693 760.224C700.598 750.33 701.202 740.411 701.504 730.481Z"/><path fill="#EF1E22" d="M641.204 768.188C641.425 768.207 641.647 768.221 641.867 768.246C642.225 768.287 642.58 768.345 642.938 768.387C652.283 769.483 674.549 796.518 681.738 804.165L675.79 816.798C674.812 819.043 674.9 818.949 673.073 820.563C666.893 822.512 648.935 819.659 641.22 818.866C641.435 801.974 641.429 785.08 641.204 768.188Z"/><path fill="#EF1E22" d="M550.068 674.816C563.998 679.189 568.32 685.101 577.971 695.683C576.67 704.796 577.403 714.52 575.178 722.4C572.907 724.596 573.609 723.9 569.628 724.257L540.189 724.254C542.543 702.435 543.6 695.682 550.068 674.816Z"/><path fill="#EF1E22" d="M715.635 612.365C733.288 623.171 745.246 638.101 756.913 654.663L740.292 663.265L730.473 667.384C719.885 647.148 715.462 639.319 700.443 622.432C705.526 619.106 710.59 615.75 715.635 612.365Z"/><path fill="#EF1E22" d="M544.978 787.806C546.433 787.977 547.411 788.509 548.045 789.763C556.373 806.216 565.077 818.429 577.022 832.51C570.504 837.037 564.748 843.382 557.228 839.14C539.792 826.412 532.874 817.433 520.677 800.361C527.975 795.678 537.108 791.531 544.978 787.806Z"/><path fill="#EF1E22" d="M577.962 776.238L580.015 776.314C582.339 779.282 588.131 798.159 590.159 803.153C593.323 810.948 595.727 816.137 599.761 823.742C594.183 825.301 588.602 828.376 582.909 829.022C580.936 829.246 580.211 827.982 578.622 826.554C565.92 811.326 560.867 802.804 552.45 785.044C561.103 781.521 569.042 779.056 577.962 776.238Z"/><path fill="#EF1E22" d="M694.567 624.889C703.681 627.324 720.787 660.869 725.069 669.939L708.263 675.754L696.385 679.321C693.005 662.459 685.492 646.284 677.895 631.008C683.922 629.008 688.649 627.298 694.567 624.889Z"/><path fill="#EF1E22" d="M641.155 824.259C652.034 824.24 659.441 825.505 669.978 827.409C664.618 835.303 659.893 842.081 654.069 849.62C650.283 854.557 645.325 859.96 641.181 864.705C641.293 851.223 641.284 837.74 641.155 824.259Z"/><path fill="#EF1E22" d="M641.406 591.402C642.716 592.383 643.958 593.452 645.123 594.602C650.159 599.609 667.773 620.497 667.725 626.81L665.706 628.125C657.347 629.767 649.689 630.187 641.209 630.829L641.406 591.402Z"/><path fill="#EF1E22" d="M634.173 592.23L635.083 592.846C637.068 597.886 636.084 623.937 635.961 630.86C628.316 630.296 621.262 629.469 613.657 628.54C611.976 628.28 611.817 628.004 610.332 627.108L609.98 625.451C611.775 617.448 628.042 599.5 634.173 592.23Z"/><path fill="#EF1E22" d="M625.185 824.708C627.377 824.378 633.528 824.338 636.04 824.266L635.984 864.034C633.042 861.188 630.345 857.936 627.656 854.839C619.744 845.288 614.405 837.655 607.73 827.243L625.185 824.708Z"/><path fill="#EF1E22" d="M628.198 590.061L628.945 591.4C617.874 604.421 611.916 611.983 602.53 626.161L591.259 622.635C589.669 622.201 589.664 621.968 588.224 620.954L588.327 619.039C593.301 610.393 619.059 595.306 628.198 590.061Z"/><path fill="#EF1E22" d="M602.292 828.794C604.322 831.114 606.185 833.797 607.92 836.357C615.07 846.907 622.892 856.475 631.216 866.119C626.92 863.864 622.648 861.562 618.402 859.214C606.369 851.925 596.316 843.56 586.038 834.057C591.068 831.939 597.006 830.354 602.292 828.794Z"/><path fill="#EF1E22" d="M675.002 828.554L691.648 834.047C679.924 845.135 672.404 850.24 658.948 859.451C654.988 861.846 650.034 864.056 645.793 866.078C658.018 853.34 665.245 843.125 675.002 828.554Z"/><path fill="#EF1E22" d="M647.793 590.543C655.341 592.019 688.324 613.364 689.512 620.651L688.098 622.135L675.257 626.256C665.371 611.828 659.24 603.813 647.793 590.543Z"/><path fill="#EF1E22" d="M580.016 836.697C583.451 838.153 596.501 849.518 600.965 852.75C606.847 857.009 612.151 860.542 618.392 864.533L605.756 861.445C592.221 858.999 578.292 852.074 566.483 845.217C570.531 842.415 575.767 839.346 580.016 836.697Z"/><path fill="#EF1E22" d="M611.189 591.894C613.111 591.466 612.973 591.455 614.89 591.89C613.84 593.643 609.631 595.813 607.595 597.064C597.745 603.118 589.597 610.423 581.234 618.354L575.8 615.441L566.186 609.486C582.123 600.038 593.321 595.815 611.189 591.894Z"/><path fill="#EF1E22" d="M696.191 836.698C701.216 838.302 706.711 842.273 711.172 845.256C697.329 853.406 689.208 856.298 674.195 861.147L659.404 864.316C674.533 855.027 683.025 848.335 696.191 836.698Z"/><path fill="#EF1E22" d="M661.932 591.684C669.108 591.62 708.697 602.327 708.705 610.679L705.849 613.075L696.473 618.558C686.487 608.15 673.779 599.735 661.932 591.684Z"/><path fill="#EF1E22" d="M671.383 730.491L695.923 730.485C695.895 738.048 695.352 745.147 694.832 752.679C691.253 753.002 674.868 734.217 671.383 730.491Z"/><path fill="#EF1E22" d="M582.921 701.74C587.419 704.685 600.525 719.473 604.441 723.918C597.222 724.236 588.929 724.141 581.624 724.228C581.758 716.187 581.711 709.699 582.921 701.74Z"/><path fill="#EF1E22" d="M729.739 787.01C737.957 789.67 749.404 796.13 757.022 800.268L751.976 807.351C751.078 808.662 750.83 808.669 749.539 809.718C743.281 809.155 729.157 793.718 729.739 787.01Z"/><path fill="#EF1E22" d="M581.732 624.722C587.44 626.924 593.877 629.026 599.699 631.066C597.376 635.453 595.167 640.118 592.972 644.587L592.005 645.19C588.476 644.583 579.443 633.899 576.58 630.785L581.732 624.722Z"/><path fill="#EF1E22" d="M685.736 808.448L701.028 824.412C698.763 826.919 697.936 828.11 694.794 829.568C689.319 827.47 683.532 825.624 677.957 823.758L685.736 808.448Z"/><path fill="#EF1E22" d="M528.041 643.818C532.329 647.538 546.143 660.864 546.444 665.734L545.18 666.492L542.526 665.757C535.077 662.237 528.053 658.491 520.775 654.638L528.041 643.818Z"/><path fill="#EF1E22" d="M560.632 612.974C565.679 613.67 575.592 619.87 576.507 625.373C570.067 627.368 563.787 617.672 560.632 612.974Z"/><path fill="#EF1E22" d="M703.006 828.045C706.901 829.986 715.266 837.359 715.2 841.961C709.039 838.425 700.401 835.809 703.006 828.045Z"/><path fill="#142049" d="M627.193 1293.18L671.029 1293.1C679.988 1323.26 692.657 1364.06 697.367 1394.51C706.947 1357.99 715.522 1329.16 727.011 1293.21L770.452 1293.21C770.564 1312.01 772.091 1332.37 773.208 1351.29C775.06 1380.42 776.633 1409.58 777.929 1438.74C767.67 1438.32 755.893 1438.58 745.521 1438.56C744.946 1407.26 742.136 1373.01 742.34 1342.53L742.234 1325.11C731.509 1363.19 719.731 1399.16 708.372 1436.84L682.371 1436.82C670.515 1397.92 663.802 1364.24 653.591 1326.15C653.296 1362.03 650.285 1402.36 648.351 1438.59C638.461 1438.48 628.211 1438.67 618.291 1438.72C618.266 1416.35 620.749 1393.23 622.059 1370.83C623.574 1344.91 624.824 1319.04 627.193 1293.18Z"/><path fill="#142049" d="M393.604 1292.63C415.744 1291.12 453.194 1292.51 465.434 1314.17C469.37 1321.08 470.372 1329.28 468.217 1336.94C464.836 1348.72 456.161 1355.02 446.027 1360.54C450.493 1362.79 454.52 1364.61 458.477 1367.75C479.797 1384.66 479.022 1410.67 458.439 1428.11C433.069 1445.01 395.519 1441.67 366.329 1439.24C364.551 1394.29 365.523 1340.76 366.154 1295.57C374.634 1294.34 384.953 1293.53 393.604 1292.63ZM398.851 1416.25C411.057 1416.36 422.4 1417.39 432.742 1409.83C453.065 1381.84 420.678 1373.7 398.798 1374.73L398.851 1416.25ZM398.781 1351.28C411.391 1351.44 417.353 1351.89 428.921 1346.38C433.099 1342.51 435.398 1340.1 435.604 1334.01C436.233 1315.46 413.723 1316.52 401.207 1317.47C400.716 1317.5 400.226 1317.55 399.737 1317.61C397.549 1322.39 398.591 1344.64 398.781 1351.28Z"/><path fill="#142049" d="M836.709 1294.11C850.854 1293.76 866.122 1294.04 880.355 1294.08C895.077 1340.33 911.85 1392.07 924.991 1438.58L889.246 1438.67L878.42 1402.48C868.767 1400.77 847.918 1401.59 837.411 1401.85C833.529 1413.57 830.146 1426.66 827.369 1438.68C815.843 1438.57 804.017 1438.76 792.467 1438.81C806.69 1390.5 821.972 1342.28 836.709 1294.11ZM842.398 1377.13L856.832 1377.07L873.425 1377.13C871.128 1369.68 858.999 1323.87 857.263 1321.15C853.224 1333.39 845.131 1364.13 842.398 1377.13Z"/><path fill="#142049" d="M515.615 1293.46C518.299 1293.09 525.762 1293.05 528.679 1292.98C549.058 1292.49 572.272 1292.26 587.955 1307.49C605.167 1324.21 604.067 1355.61 587.257 1372.27C571.212 1388.17 550.586 1387.66 529.561 1387.69C527.946 1394.68 528.571 1429.03 528.611 1438.71C517.809 1438.65 507.008 1438.81 496.212 1439.17L496.224 1295.71C501.765 1294.7 509.848 1294.08 515.615 1293.46ZM528.594 1362.14C540.644 1362.48 548.184 1363.32 558.869 1357.02C563.596 1351.99 568.928 1345 567.919 1337.79C565.208 1318.42 546.32 1317.34 531.959 1318.3L529.498 1319.37C527.695 1325.36 528.517 1354.33 528.594 1362.14Z"/><path fill="#858484" d="M240.976 1249.14C261.419 1249.61 283.694 1249.18 304.249 1249.18L430.317 1249.22L814.315 1249.23L963.298 1249.19C986.533 1249.16 1010.33 1249.1 1033.6 1249.24C1036.45 1249.25 1038.26 1249.82 1040.04 1251.99C1040.2 1254.42 1040.37 1254.79 1039.06 1256.9C1020.04 1257.51 997.787 1256.99 978.625 1256.94L866.54 1256.71L504.503 1256.75L323.426 1256.71L271.529 1256.78C263.859 1256.79 249.286 1257.19 242.35 1256.21C240.82 1254.29 241.088 1251.7 240.976 1249.14Z"/><path d="M328.407 1053.15C348.2 1049.86 366.913 1063.23 370.201 1083.02C373.49 1102.81 360.109 1121.52 340.316 1124.8C320.524 1128.09 301.815 1114.71 298.527 1094.93C295.238 1075.14 308.616 1056.44 328.407 1053.15ZM337.119 1112.69C360.851 1101.43 354.614 1063.68 330.906 1065.42C307.965 1076.78 314.12 1114.06 337.119 1112.69Z"/><path d="M704.336 1052.53C711.533 1052.25 718.847 1052.4 726.057 1052.46C726.669 1076.76 728.244 1100.29 729.656 1124.53L713.613 1124.49C713.255 1108.14 712.558 1092.03 712.374 1075.63L712.036 1070.51C711.87 1070.66 696.598 1118.74 695.012 1123.51L682.085 1123.53C676.65 1105.67 671.928 1087.6 667.931 1069.36C666.477 1087.24 665.068 1106.52 665.051 1124.41L650.41 1124.43C650.653 1108.84 652.626 1069.91 655.257 1053.49C655.398 1052.61 656.65 1052.72 657.857 1052.52L676.042 1052.46C681.14 1066.08 686.418 1088.34 689.582 1102.45C694.192 1085.72 699.111 1069.08 704.336 1052.53Z"/><path d="M993.394 1052.52C1004.63 1052.14 1027.57 1049.54 1034.17 1058.69C1044.17 1072.55 1039.34 1081.91 1028.11 1090.63C1037.82 1098.82 1039.02 1111.66 1042.3 1124.32C1035.56 1125.23 1027.1 1127.35 1024.04 1119.78C1019.45 1103.72 1022.42 1099.16 1004.19 1094.86L1004.15 1124.4L988.376 1124.46C988.2 1109.97 987.194 1069.46 989.448 1054.03C989.559 1053.27 992.246 1052.82 993.394 1052.52ZM1020.61 1080.81C1029.77 1065.5 1016.16 1064.66 1004.18 1064.53C1004.02 1070.16 1002.71 1080.18 1006.22 1084.14C1010.89 1085.77 1016.59 1083.48 1020.61 1080.81Z"/><path d="M578.358 1053.28C584.574 1053.08 591.215 1053.34 597.464 1053.47C604.53 1071.69 613.987 1105.19 619.653 1124.53L602.071 1124.54C600.846 1119.98 598.633 1109.13 595.277 1106.72L575.896 1106.53C574.546 1112.37 572.806 1118.6 571.293 1124.45L553.768 1124.45C560.543 1102.33 567.081 1079.31 574.665 1057.47C575.694 1054.51 576.086 1054.23 578.358 1053.28ZM587.656 1094.47L593.134 1094.27C593.824 1091.46 587.649 1070.75 586.147 1067.53C583.701 1074.53 580.051 1086.7 578.71 1093.98C580.982 1094.86 585.051 1094.52 587.656 1094.47Z"/><path d="M938.889 1053.28L955.401 1053.63C961.651 1070.28 972.822 1106.99 977.302 1124.43L959.867 1124.52C958.691 1119.93 956.747 1108.64 952.843 1106.63L933.94 1106.66C932.316 1112.63 930.631 1118.58 928.885 1124.51L912.045 1124.46C917.075 1105.04 926.532 1074.87 933.468 1055.54C934.199 1053.51 936.524 1053.68 938.889 1053.28ZM944.949 1094.56C947.333 1094.45 949.593 1094.73 951.386 1093.63C949.988 1085.63 946.756 1074.91 944.548 1066.84C942.064 1072.52 938.217 1086.43 937.322 1092.59C939.171 1095.15 941.91 1094.61 944.949 1094.56Z"/><path d="M245.851 1052.38C258.431 1051.83 275.817 1050.55 285.855 1059.41C290.011 1063.04 292.481 1068.23 292.68 1073.75C293.273 1092.78 275.997 1099.26 259.982 1099.62C259.54 1099.62 258.047 1099.91 257.545 1100C254.673 1104.93 255.902 1118.21 256.081 1124.39L240.323 1124.46L240.146 1081.19C240.12 1073.58 239.743 1061.89 240.629 1054.79C242.524 1052.66 242.494 1053.25 245.851 1052.38ZM272.384 1083.15C281.998 1068.21 269.117 1064.29 256.161 1064.54C255.778 1074.7 255.108 1097.93 272.384 1083.15Z"/><path d="M595.139 1159.42C600.697 1159.16 606.451 1159.59 611.558 1161.96C617.505 1164.68 622.064 1169.74 624.152 1175.93C629.905 1192.68 622.908 1210.08 605.423 1215.75C593.25 1216.18 584.016 1212.37 578.464 1200.99C574.955 1193.74 574.523 1185.39 577.266 1177.82C580.63 1168.37 586.449 1163.58 595.139 1159.42ZM601.847 1210.77C608.76 1208.12 612.983 1205.38 616.332 1198.13C619.224 1191.77 619.496 1184.53 617.09 1177.97C615.172 1172.85 611.144 1168.18 606.077 1166.03C604.113 1165.18 602.055 1164.58 599.947 1164.23C575.676 1173.96 577.558 1206.5 601.847 1210.77Z"/><path d="M758.318 1160.5C783.041 1159.58 805.699 1160.75 800.863 1193.77C799.961 1199.93 796.615 1203.81 792.711 1208.36C782.367 1216.12 769.651 1214.93 757.307 1214.69C757.21 1203.32 756.291 1170.5 758.318 1160.5ZM764 1209.31C773.16 1209.4 779.058 1209.76 787.232 1204.75C792.14 1198.59 796.068 1192.64 795.02 1184.17C794.325 1178.54 791.237 1173.48 786.545 1170.28C780.207 1165.89 774.508 1165.51 767.053 1165.34C765.56 1166.09 764.872 1166.02 764.675 1167.38C762.975 1179.11 763.868 1197.71 764 1209.31Z"/><path d="M278.137 1160.57C288.408 1160.09 305.894 1159.03 313.597 1166.13C326.111 1177.68 322.908 1195.96 313.51 1207.51C303.202 1216.31 290.21 1215.03 277.492 1214.46C277.306 1198.97 276.437 1175.55 278.137 1160.57ZM284.267 1209.29C293.345 1209.51 299.178 1210.01 306.951 1204.76C311.92 1199.05 315.34 1193.32 314.96 1185.38C314.697 1179.69 312.017 1174.39 307.594 1170.8C301.397 1165.73 294.406 1165 286.705 1165.43L284.864 1166.58C283.339 1173.94 284.144 1200.41 284.267 1209.29Z"/><path d="M494.704 1052.33C504.013 1051.88 509.802 1052.53 518.945 1054.03L515.783 1067.92C494.535 1063.3 473.617 1068.42 479.9 1096.86C484.043 1115.61 501.837 1110.3 515.023 1111.79C515.997 1111.9 516.437 1114.56 516.715 1115.48C517.532 1118.99 518.306 1120.61 516.946 1123.55C508.648 1128.4 483.702 1126.07 475.832 1119.35C448.857 1096.3 460.329 1058.65 494.704 1052.33Z"/><path d="M858.835 1053.29C875.4 1053.09 891.966 1053.12 908.53 1053.36L908.459 1066.32L889.328 1066.53L889.233 1110.08L889.353 1124.41L873.422 1124.52C873.177 1105.39 873.444 1085.7 873.471 1066.53C867.07 1066.39 860.132 1066.51 853.686 1066.51C853.088 1059.57 851.122 1054.81 858.835 1053.29Z"/><path d="M379.144 1053.21C384.435 1053.25 390.013 1053.49 395.329 1053.63C395.25 1072.94 395.292 1092.24 395.457 1111.54L424.075 1111.51L424.321 1124.35C413.258 1125.21 391.095 1124.59 379.194 1124.64C378.897 1101.02 379.149 1076.88 379.144 1053.21Z"/><path d="M773.168 1053.32C778.333 1053.32 783.837 1053.56 789.03 1053.69C788.839 1072.98 788.911 1092.27 789.246 1111.55L818.046 1111.55L818.253 1124.33C804.417 1124.98 787.382 1124.6 773.298 1124.59C772.652 1101.63 773.131 1076.45 773.168 1053.32Z"/><path d="M457.383 1160.46C479.105 1159.1 502.69 1163.4 481.654 1188.86C484.722 1194.94 492.708 1209.44 489.465 1215.66C484.565 1216.06 483.174 1211.82 481.884 1208.06C479.469 1193.66 478.041 1191.53 463.048 1191.67C463.26 1198.06 465.189 1211.57 459.428 1215.14L457.994 1214.12C454.925 1206.8 455.973 1168.33 457.383 1160.46ZM463.086 1186.65C467.817 1186.56 472.284 1186.67 476.737 1184.88C487.69 1176.69 482.862 1166.27 470.978 1165.46C468.895 1165.32 466.806 1165.3 464.721 1165.41C461.818 1169.94 462.913 1180.86 463.086 1186.65Z"/><path d="M865.494 1160.56C887.669 1158.54 910.158 1163.42 889.576 1188.96C892.574 1193.94 902.066 1210.64 895.055 1214.85L893.403 1214.33C890.974 1212.06 890.956 1210.91 890.048 1207.64C887.186 1193.64 885.791 1191.59 871.17 1191.64C871.332 1197.59 873.625 1212.56 867.18 1214.77L865.677 1213.95C863.104 1207.84 864.031 1167.72 865.494 1160.56ZM871.209 1186.74C876.946 1186.42 879.971 1186.44 885.403 1184.67C897.517 1171.74 887.438 1165.96 873.751 1165.31C869.328 1168.33 870.986 1181.27 871.209 1186.74Z"/><path d="M434.422 1053.24L450.216 1053.67C450.384 1077.27 450.424 1100.88 450.335 1124.49L434.358 1124.54C434.076 1102.19 433.279 1075.4 434.422 1053.24Z"/><path d="M742.358 1053.31L758.17 1053.66L758.172 1124.52L742.346 1124.54L742.358 1053.31Z"/><path d="M828.165 1053.22C833.442 1053.26 838.971 1053.51 844.269 1053.66L844.401 1124.49L828.397 1124.51L828.165 1053.22Z"/><path d="M529.492 1053.32C534.463 1053.16 540.172 1053.5 545.201 1053.68L545.288 1124.46L529.48 1124.47L529.492 1053.32Z"/><path d="M928.615 1160.21C932.595 1160.26 935.143 1159.91 937.336 1163.82C940.569 1169.59 954.762 1210.4 953.817 1214.34C944.708 1218.06 946.789 1199.99 939.492 1197.58L922.639 1197.55C921.171 1204.29 920.316 1213.55 912.217 1214.12L911.542 1213.17C912.884 1202.27 924.381 1172.15 928.615 1160.21ZM924.299 1192.5L934.321 1192.53L939.737 1192.35C939.843 1189.31 933.796 1169.59 932.141 1167.37C929.63 1176.5 927.491 1183.6 924.299 1192.5Z"/><path d="M818.151 1160.23C824.928 1160.08 842.919 1158.75 847.946 1163.37C844.471 1166.59 830.278 1165.88 825.355 1165.77L825.388 1183.45C831.646 1183.19 841.144 1182.25 846.116 1185.85L846.201 1186.89C840.187 1189.57 830.586 1187.15 825.845 1189.46L825.304 1192.36L825.378 1209.24C830.489 1209.2 843.344 1208.32 847.199 1211.59L846.106 1212.75C836.841 1215.98 828.056 1215.06 818.238 1214.88L818.151 1160.23Z"/><path d="M711.432 1160.23C716.94 1160.11 736.685 1158.85 740.255 1162.61L739.381 1163.85C733.843 1166.9 724.596 1165.99 718.204 1165.76L718.21 1183.5C723.168 1183.41 737.002 1182.09 739.232 1186.13C735.426 1189.43 723.657 1187.11 719.245 1189.66C718.224 1190.25 718.382 1191.65 718.161 1193.19L718.213 1209.27C726.247 1209.11 733.843 1208.51 741.518 1211.1L741.637 1212.24C736.442 1216.01 717.887 1214.96 711.449 1214.86L711.432 1160.23Z"/><path d="M373.262 1159.47C378.913 1159.27 385.156 1158.98 390.126 1162.05C393.152 1170.05 378.399 1163.54 375.391 1164.96C371.865 1166.63 370.745 1166.34 368.054 1169.42C365.724 1179.6 384.13 1184.55 389.699 1190.55C391.262 1192.23 392.912 1197.71 393.695 1200.1C390.609 1210.2 388.889 1213.2 378.505 1215.7C375.052 1215.85 371.592 1215.71 368.165 1215.25C365.149 1214.84 363.558 1214.36 361.761 1212.04C361.585 1209.04 361.265 1210.39 362.646 1207.81C364.228 1207.4 368.342 1208.62 370.058 1209.45C375.877 1212.27 384.553 1208.81 386.229 1202.43C387.374 1195.93 378.889 1191.42 374.132 1188.63C357.81 1179.05 355.341 1168.92 373.262 1159.47Z"/><path d="M665.089 1160.21C670.61 1160.06 691.252 1158.65 693.973 1163.65C689.265 1166.63 678.006 1165.92 672.332 1165.77L672.321 1184.4C677.299 1184.31 688.85 1183.3 692.328 1186.2L692.37 1187.93L690.815 1189.5L672.314 1189.76C672.384 1194.64 673.528 1211.03 671.001 1213.88C668.066 1214.5 669.167 1214.66 666.457 1213.74C664.045 1208.31 665.097 1169.07 665.089 1160.21Z"/><path d="M525.56 1160.24C531.691 1160.15 561.856 1158.87 565.715 1161.64L565.918 1163.89C562.249 1166.98 554.71 1165.87 549.474 1165.73L549.43 1198.54C549.5 1202.84 550.084 1209.72 548.562 1213.39C546.502 1214.98 547.686 1214.52 544.76 1214.39C540.4 1209.14 542.279 1174.42 542.387 1165.86C534.125 1166.01 528.322 1169.27 525.56 1160.24Z"/><path d="M403.174 1160.33C414.246 1160.09 425.577 1159.66 436.64 1160.17C440.067 1160.33 442.521 1160.64 443.968 1163.99C441.138 1166.65 431.639 1165.83 427.367 1165.79C427.047 1176.24 427.266 1187.59 427.275 1198.11C427.465 1203.12 428.893 1210.82 425.166 1214.14C422.28 1214.36 423.523 1214.71 421.237 1213.39C419.515 1205.62 420.418 1175.22 420.522 1165.86C411.577 1165.91 407.422 1169.08 403.174 1160.33Z"/><path d="M970.183 1160.06C972.907 1160.26 972.928 1160.23 975.476 1161.14C978.635 1166.08 977.246 1201.33 977.127 1209.3C982.81 1209.08 991.653 1208.11 997.081 1209.59C999.928 1210.37 1000.09 1211.98 1001.16 1214.33C998.042 1215.26 975.092 1214.94 970.255 1214.93L970.183 1160.06Z"/><path d="M506.282 1160.05C509.25 1160.15 509.434 1160.1 512.094 1161.28C514.701 1166.01 513.368 1205.99 513.266 1213.96C510.272 1214.46 509.84 1214.72 507.106 1213.74C505.368 1210.65 506.235 1167.01 506.282 1160.05Z"/><path d="M337.458 1160.13C340.404 1160.26 340.65 1160.18 343.248 1161.41C345.254 1165.15 344.217 1207.07 344.152 1214.5C341.252 1214.47 340.661 1214.62 338.033 1213.6C336.487 1208.92 337.38 1168.07 337.458 1160.13Z"/><path d="M443.107 1035.5L460.673 1035.5C457.405 1039.32 452.789 1043.76 449.199 1047.41C445.503 1049.28 438.457 1048.74 434.078 1048.69C436.99 1044.29 440.117 1039.86 443.107 1035.5Z"/></svg>