<?xml version="1.0" encoding="utf-8" ?><svg xmlns="http://www.w3.org/2000/svg" xmlns:xlink="http://www.w3.org/1999/xlink" width="1276" height="1702" viewBox="0 0 1276 1702"><path fill="#FECB07" d="M604.937 476.213C605.373 471.212 610.997 449.951 612.414 443.909C616.692 425.307 620.427 406.583 623.612 387.762C627.454 364.245 630.653 340.628 633.208 316.937C634.714 302.74 636.338 280.184 638.915 266.917C640.33 275.186 641.249 286.896 641.841 295.333C644.627 317.176 646.541 338.635 649.704 360.565C655.211 399.845 663.069 438.761 673.235 477.102C689.177 472.745 706.201 474.97 720.487 483.279C729.095 488.177 734.129 493.112 740.271 500.676C721.198 509.25 710.316 518.148 701.733 537.803C698.231 536.708 696.446 535.513 693.245 536.161L692.325 538.82C692.707 539.311 693.776 540.803 694.198 541.056L696.292 544.085C773.742 572.212 816.324 624.526 829.924 705.508L837.531 709.541C836.929 703.82 836.468 699.016 835.291 693.351C861.347 694.744 888.378 702.378 888.757 733.033C890.53 733.481 893.452 734.332 895.177 734.508C903.51 735.19 930.792 742.297 941.099 744.484L941.162 745.874C930.834 748.542 920.534 751.317 910.263 754.197C905.341 755.601 893.691 759.256 889.239 759.866C893.794 787.054 888.889 811.627 865.43 828.901C859.556 815.462 853.609 805.585 840.758 797.119C838.933 795.917 830.269 791.333 829.102 789.497C828.923 789.215 829.751 784.1 829.927 783.105L821.326 787.536C803.182 838.497 769.688 877.759 720.449 901.079C707.578 907.203 694.056 911.857 680.141 914.951C680.059 903.109 680.926 894.803 666.562 895.701L665.977 895.001L666.331 894.323C669.912 884.966 668.735 876.122 660.941 869.454C650.945 868.435 629.736 869.13 618.9 869.243C608.193 874.613 609.928 880.078 610.739 890.973L611.353 893.316C611.848 894.329 611.63 893.911 611.537 895.287C596.451 897.51 597.711 899.401 597.619 914.864C530.722 902.057 478.305 849.985 456.233 786.91C454.195 785.913 453.315 785.228 451.056 785.418C431.433 799.253 421.126 803.88 411.372 828.759C404.729 823.796 399.169 817.531 395.03 810.346C385.793 794.31 384.756 776.854 389.585 759.277C379.861 757.093 364.227 754.774 355.594 749.909C351.385 749.518 337.716 746.102 331.828 745.09C346.532 742.876 360.438 739.602 374.733 735.576C379.304 734.288 384.41 732.807 389.084 732.218C388.341 709.43 406.402 700.067 426.102 694.831C430.459 693.673 436.694 692.284 440.727 694.736C441.675 697.429 440.574 706.647 440.36 710.109C442.058 708.668 445.658 706.75 447.713 705.565C459.493 627.653 505.595 568.958 581.351 544.163C582.222 541.701 583.773 538.587 584.892 536.147C582.48 535.274 580.046 537.274 578.237 536.768C577.055 536.437 566.369 518.933 563.519 515.994C555.953 508.194 547.285 503.794 537.324 499.868C541.439 494.486 546.41 489.816 552.039 486.045C568.818 474.716 584.576 473.691 603.745 477.325L604.937 476.213ZM447.713 705.565C462.981 697.385 474.875 687.741 488.714 677.494C489.276 676.434 500.617 666 502.176 664.631C525.701 643.987 541.019 618.02 558.183 592.543C558.877 590.359 566.409 576.361 568.017 573.199C572.86 563.709 577.309 554.022 581.351 544.163C505.595 568.958 459.493 627.653 447.713 705.565ZM507.728 841.05C508.037 840.415 508.347 839.235 508.569 838.514C506.412 836.904 504.798 837.518 501.585 837.548C500.906 839.738 499.768 842.248 500.395 844.322C502.39 843.36 505.79 841.459 507.728 841.05Z"/><path fill="#FEF300" d="M604.937 476.213C605.373 471.212 610.997 449.951 612.414 443.909C616.692 425.307 620.427 406.583 623.612 387.762C627.454 364.245 630.653 340.628 633.208 316.937C634.714 302.74 636.338 280.184 638.915 266.917C640.33 275.186 641.249 286.896 641.841 295.333C644.627 317.176 646.541 338.635 649.704 360.565C655.211 399.845 663.069 438.761 673.235 477.102C689.177 472.745 706.201 474.97 720.487 483.279C729.095 488.177 734.129 493.112 740.271 500.676C721.198 509.25 710.316 518.148 701.733 537.803C698.231 536.708 696.446 535.513 693.245 536.161L692.325 538.82C692.707 539.311 693.776 540.803 694.198 541.056C694.886 554.314 727.712 609.494 737.053 622.432C714.797 603.998 696.489 593.159 667.541 587.134C660.43 585.654 653.776 585.332 647.256 584.164C641.769 584.325 635.608 584.147 630.067 584.11C590.234 589.952 576.426 594.996 543.211 619.304C546.85 613.191 557.344 598.197 558.183 592.543C558.877 590.359 566.409 576.361 568.017 573.199C572.86 563.709 577.309 554.022 581.351 544.163C582.222 541.701 583.773 538.587 584.892 536.147C582.48 535.274 580.046 537.274 578.237 536.768C577.055 536.437 566.369 518.933 563.519 515.994C555.953 508.194 547.285 503.794 537.324 499.868C541.439 494.486 546.41 489.816 552.039 486.045C568.818 474.716 584.576 473.691 603.745 477.325L604.937 476.213Z"/><path fill="#00A751" d="M640.141 298.903C639.997 298.352 639.924 297.059 639.867 296.435L641.841 295.333C644.627 317.176 646.541 338.635 649.704 360.565C655.211 399.845 663.069 438.761 673.235 477.102C689.177 472.745 706.201 474.97 720.487 483.279C729.095 488.177 734.129 493.112 740.271 500.676C721.198 509.25 710.316 518.148 701.733 537.803C698.231 536.708 696.446 535.513 693.245 536.161L692.325 538.82C692.707 539.311 693.776 540.803 694.198 541.056C694.886 554.314 727.712 609.494 737.053 622.432C714.797 603.998 696.489 593.159 667.541 587.134C660.43 585.654 653.776 585.332 647.256 584.164C648.852 583.561 650.436 582.928 652.007 582.264C657.504 579.918 662.451 576.081 664.559 570.273C665.856 566.647 665.609 562.648 663.875 559.209C660.509 552.41 653.8 549.697 647.148 547.466C649.724 547.202 650.069 547.141 652.503 546.298C650.221 543.407 644.94 537.88 645.4 534.071L647.078 533.72C654.166 535.673 655.205 536.304 660.778 541.042C660.607 532.522 660.54 524.001 660.578 515.479C657.084 518.568 650.587 524.609 646.257 520.728C646.075 515.806 650.332 512.723 653.655 509.46L639.88 509.41C639.408 440.505 639.03 367.665 640.141 298.903Z"/><path fill="#FECB07" d="M640.141 298.903C639.997 298.352 639.924 297.059 639.867 296.435L641.841 295.333C644.627 317.176 646.541 338.635 649.704 360.565C655.211 399.845 663.069 438.761 673.235 477.102C689.177 472.745 706.201 474.97 720.487 483.279C729.095 488.177 734.129 493.112 740.271 500.676C721.198 509.25 710.316 518.148 701.733 537.803C698.231 536.708 696.446 535.513 693.245 536.161L692.325 538.82C666 473.47 652.939 401.366 644.365 331.654C643.028 320.78 642.135 309.668 640.141 298.903Z"/><path fill="#FECB07" d="M537.324 499.868C541.439 494.486 546.41 489.816 552.039 486.045C568.818 474.716 584.576 473.691 603.745 477.325L604.937 476.213C605.594 482.4 588.714 534.476 584.892 536.147C582.48 535.274 580.046 537.274 578.237 536.768C577.055 536.437 566.369 518.933 563.519 515.994C555.953 508.194 547.285 503.794 537.324 499.868Z"/><path fill="#FEFEFE" d="M631.574 547.146C637.244 546.741 641.483 546.532 647.148 547.466C653.8 549.697 660.509 552.41 663.875 559.209C665.609 562.648 665.856 566.647 664.559 570.273C662.451 576.081 657.504 579.918 652.007 582.264C650.436 582.928 648.852 583.561 647.256 584.164C641.769 584.325 635.608 584.147 630.067 584.11C628.139 583.414 626.23 582.668 624.343 581.87C615.575 578.076 608.862 568.311 613.821 558.91C617.55 551.84 624.398 549.296 631.574 547.146Z"/><path fill="#141F48" d="M632.263 550.335C661.473 547.94 675.926 571.454 645.84 580.947C635.461 582.733 620.732 580.739 616.274 569.608C615.076 566.695 615.187 563.409 616.576 560.583C619.551 554.458 626.294 552.162 632.263 550.335Z"/><path fill="#FEFEFE" d="M621.309 563.567C628.146 563.384 651.966 561.75 655.857 565.149L655.696 567.951C649.668 568.094 628.604 569.469 622.405 566.879C621.539 566.517 621.523 564.788 621.309 563.567Z"/><path fill="#EE1D23" d="M639.88 509.41L653.655 509.46C650.332 512.723 646.075 515.806 646.257 520.728C650.587 524.609 657.084 518.568 660.578 515.479C660.54 524.001 660.607 532.522 660.778 541.042C655.205 536.304 654.166 535.673 647.078 533.72L645.4 534.071C644.94 537.88 650.221 543.407 652.503 546.298C650.069 547.141 649.724 547.202 647.148 547.466C641.483 546.532 637.244 546.741 631.574 547.146C629.644 547.103 627.985 547.33 626.438 546.302C627.431 543.002 630.834 540.924 633.435 534.175L633.869 533.031C625.481 534.988 623.949 535.349 617.741 541.156L617.577 515.929C619.447 517.377 621.397 518.718 623.419 519.944C626.239 521.651 628.222 522.576 631.435 521.799L632.16 520.354C630.922 515.346 627.821 512.836 624.111 509.509L639.88 509.41Z"/><path fill="#FEFEFE" d="M638.334 516.293L640.199 517.204C641.426 519.274 640.81 523.097 641.166 526.429C644.23 528.625 647.702 525.938 651.645 527.743L651.906 529.08C649.642 530.699 644.135 530.151 640.954 530.123C641.042 534.375 640.883 537.161 640.55 541.4L638.771 539.91C637.376 536.844 637.842 533.572 637.93 530.096C634.39 530.177 631.624 530.334 628.082 529.878L627.171 528.536C628.84 525.275 633.742 528.719 637.768 526.096C637.916 522.826 638.104 519.558 638.334 516.293Z"/><path fill="#FEF300" d="M781.505 745.767L892.439 745.704C902.615 745.66 912.78 745.855 922.953 745.779C929.168 745.732 934.797 744.692 941.099 744.484L941.162 745.874C930.834 748.542 920.534 751.317 910.263 754.197C905.341 755.601 893.691 759.256 889.239 759.866C893.794 787.054 888.889 811.627 865.43 828.901C859.556 815.462 853.609 805.585 840.758 797.119C838.933 795.917 830.269 791.333 829.102 789.497C828.923 789.215 829.751 784.1 829.927 783.105L821.326 787.536C805.134 794.067 789.465 803.081 774.302 811.642C771.157 813.417 755.252 823.158 753.055 823.95C749.378 824.683 743.756 828.222 740.237 830.202C764.824 800.525 774.88 784.272 781.505 745.767Z"/><path fill="#FECB07" d="M829.927 783.105C832.593 779.059 883.159 759.668 889.239 759.866C893.794 787.054 888.889 811.627 865.43 828.901C859.556 815.462 853.609 805.585 840.758 797.119C838.933 795.917 830.269 791.333 829.102 789.497C828.923 789.215 829.751 784.1 829.927 783.105Z"/><path fill="#141F48" d="M581.351 544.163C577.309 554.022 572.86 563.709 568.017 573.199C566.409 576.361 558.877 590.359 558.183 592.543C541.019 618.02 525.701 643.987 502.176 664.631C500.617 666 489.276 676.434 488.714 677.494C474.875 687.741 462.981 697.385 447.713 705.565C459.493 627.653 505.595 568.958 581.351 544.163ZM507.004 624.329L513.957 629.304C512.964 625.653 511.625 618.03 509.596 615.758L507.4 615.11C503.587 616.015 502.632 615.489 500.781 618.089C501.461 619.869 501.439 619.811 502.617 621.313L500.727 627.881C502.97 627.539 505.08 625.693 507.004 624.329ZM538.96 596.742L542.674 598.929C543.428 592.36 538.041 594.004 544.984 588.43L545.58 587.957L545.637 586.977C543.201 586.811 541.989 586.75 539.621 586.228C538.601 584.254 537.677 581.939 536.163 580.474C533.914 585.848 535.073 586.755 529.123 586.883L528.468 587.939C529.212 589.783 530.274 590.41 531.801 591.688C531.561 594.571 530.557 596.057 531.657 597.43C533.752 597.234 534.189 596.655 535.842 595.371C538.219 595.792 537.245 595.285 538.96 596.742ZM486.885 660.236C487.183 657.278 486.8 654.958 484.636 652.944C481.936 654.066 482.731 653.834 480.835 656.844C480.519 658.999 480.037 660.547 480.794 662.55C482.946 661.434 484.709 660.104 486.885 660.236Z"/><path fill="#FEFEFE" d="M480.835 656.844C479.055 655.598 476.378 654.168 475.758 652.261C483.036 651.692 482.564 652.706 484.913 645.517C488.954 647.96 484.23 651.751 495.13 652.091C493.438 656.737 490.674 653.225 490.364 663.36C488.197 662.726 488.613 662.478 486.885 660.236C487.183 657.278 486.8 654.958 484.636 652.944C481.936 654.066 482.731 653.834 480.835 656.844Z"/><path fill="#141F48" d="M696.292 544.085C773.742 572.212 816.324 624.526 829.924 705.508C766.94 669.77 723.042 610.456 696.292 544.085Z"/><path fill="#FEFEFE" d="M770.138 608.917C772.384 610.716 771.587 614.675 774.313 615.715C775.817 616.289 778.792 615.273 780.457 616.885C778.326 618.373 777.155 619.308 775.212 621.036C775.308 622.81 776.272 625.687 776.807 627.516L776.103 628.097L771.068 624.553C769.604 624.479 766.587 626.791 765.013 627.776L764.693 626.604L765.062 627.613L765.823 626.99C763.631 622.853 766.879 624.429 764.847 620.309C764.36 619.322 760.954 618.327 760.682 616.142C769.171 615.773 767.422 616.757 770.138 608.917Z"/><path fill="#FEFEFE" d="M792.188 644.462C793.272 647.131 793.785 648.407 795.221 650.879C798.506 652.544 799.784 651.849 803.877 651.719C801.402 653.373 800.716 653.822 798.611 655.881C797.606 658.867 797.699 659.166 797.748 662.424L797.768 663.301C795.909 663.21 794.427 661.637 792.67 660.348C790.375 661.369 788.917 663.497 786.425 663.501C788.515 651.415 783.153 656.947 782.582 651.977L788.884 651.818C790.528 650.429 791.434 646.693 792.188 644.462Z"/><path fill="#FEFEFE" d="M740.891 578.988C744.509 588.665 742.291 585.447 750.805 587.031L750.706 588.051C749.296 589.078 747.859 590.069 746.398 591.024C745.349 594.801 746.603 593.912 747.278 598.536C745.334 598.299 743.098 596.226 741.253 594.906C739.27 595.931 737.762 597.002 735.91 598.25C733.823 596.765 737.366 594.612 735.602 590.837C733.147 589.565 733.027 589.531 731.297 587.435L732.029 586.728C734.55 586.705 735.095 586.675 737.568 586.251C739.712 584.605 740.076 581.77 740.891 578.988Z"/><path fill="#141F48" d="M456.233 786.91C490.397 802.317 522.847 821.267 553.05 843.451C567.535 854.159 580.152 863.798 593.156 876.48C595.32 878.589 609.555 892.581 611.353 893.316C611.848 894.329 611.63 893.911 611.537 895.287C596.451 897.51 597.711 899.401 597.619 914.864C530.722 902.057 478.305 849.985 456.233 786.91ZM507.728 841.05C508.037 840.415 508.347 839.235 508.569 838.514C506.412 836.904 504.798 837.518 501.585 837.548C500.906 839.738 499.768 842.248 500.395 844.322C502.39 843.36 505.79 841.459 507.728 841.05Z"/><path fill="#FEFEFE" d="M537.923 854.825C539.007 857.69 539.661 859.328 541.095 862.025C543.268 862.49 544.76 862.532 546.948 862.667L547.012 864.074L543.789 866.993C542.778 869.532 543.244 870.447 543.878 873.158L544.102 874.098C542.292 874.007 539.703 871.581 537.925 870.271C535.649 872.078 534.578 873.152 531.861 874.193C533.434 868.079 532.983 866.709 528.066 862.764L528.457 862.095L534.52 861.812C536.35 860.294 536.948 857.386 537.923 854.825Z"/><path fill="#FEFEFE" d="M572.723 877.19C575.27 881.58 574.699 884.053 581.103 885.381L581.72 885.078C576.477 890.201 577.978 889.243 579.114 896.026L578.289 896.421L572.76 892.479L565.906 897.521C566.279 896.526 566.64 895.528 566.99 894.525C569.529 887.047 565.618 889.524 563.277 884.91C565.11 883.934 567.188 884.219 569.43 884.193C571.278 882.599 571.77 879.822 572.723 877.19Z"/><path fill="#FEFEFE" d="M501.585 837.548L496.515 833.525L496.839 832.868L503.145 832.34C504.563 830.041 504.792 829.089 505.674 826.496L506.636 826.341L508.922 832.241C511.489 832.821 512.982 832.745 515.632 832.794L515.931 833.574L510.544 837.676C511.302 840.032 512.46 842.418 511.739 844.666C509.748 844.069 509.05 842.728 507.728 841.05C508.037 840.415 508.347 839.235 508.569 838.514C506.412 836.904 504.798 837.518 501.585 837.548Z"/><path fill="#141F48" d="M821.326 787.536C803.182 838.497 769.688 877.759 720.449 901.079C707.578 907.203 694.056 911.857 680.141 914.951C680.059 903.109 680.926 894.803 666.562 895.701L665.977 895.001L666.331 894.323C677.552 882.88 688.112 873.666 699.782 862.867C702.623 861.011 705.662 858.644 708.254 856.456C722.439 844.485 738.123 834.825 753.055 823.95C755.252 823.158 771.157 813.417 774.302 811.642C789.465 803.081 805.134 794.067 821.326 787.536Z"/><path fill="#FEFEFE" d="M704.27 876.532C705.722 879.624 705.49 880.534 707.574 884.049C710.205 884.171 711.761 884.277 714.356 884.676C713.989 886.407 711.567 887.727 709.931 888.883C708.962 891.249 709.625 892.369 710.379 894.947L710.676 895.943L710.084 896.506L704.676 892.683C702.615 894.034 700.34 896.079 698.271 896.083C699.306 892.188 700 892.022 698.926 888.75C697.037 887.617 695.652 887.066 694.556 885.179L695.119 884.404L700.796 884.258C702.803 882.82 703.484 879.101 704.27 876.532Z"/><path fill="#FEFEFE" d="M739.143 854.854C739.722 855.671 739.989 855.935 740.171 856.691C742.034 864.441 746.892 860.133 749.61 862.786C747.85 864.215 746.263 865.537 744.566 867.04C744.39 869.678 744.776 870.912 745.29 873.536L744.471 873.924L740.017 870.746C738.295 871.142 736.051 872.655 734.408 873.613C734.136 872.775 734.093 872.93 734.273 872.113C735.923 864.599 731.863 866.958 729.806 862.818C731.75 862.558 733.697 862.317 735.646 862.095C738.239 859.821 737.952 858.578 739.143 854.854Z"/><path fill="#FEFEFE" d="M771.049 825.23C772.415 827.526 772.812 829.005 773.689 831.548C777.334 834.202 778.06 832.427 780.476 833.822L778.254 834.235L778.305 836.098C777.236 836.536 776.578 837.056 775.585 837.699C776.613 840.554 776.9 841.223 777.295 844.187C775.29 844.251 773.827 842.666 771.859 841.286C769.449 841.67 768.622 842.49 766.572 843.866L765.775 844.408L766.705 842.862L766.051 841.879C767.232 833.995 762.468 837.09 761.415 832.955C763.435 832.663 765.232 832.531 767.268 832.375C769.964 830.354 769.736 828.926 771.049 825.23Z"/><path fill="#FEF300" d="M488.714 677.494C493.356 677.189 508.652 660.229 513.6 655.985C498.509 687.466 492.348 709.686 496.064 745.16C483.937 745.219 364.304 744.749 362.634 745.942C357.285 746.035 351.208 745.995 345.926 746.324C348.877 747.341 352.869 748.565 355.594 749.909C351.385 749.518 337.716 746.102 331.828 745.09C346.532 742.876 360.438 739.602 374.733 735.576C379.304 734.288 384.41 732.807 389.084 732.218C388.341 709.43 406.402 700.067 426.102 694.831C430.459 693.673 436.694 692.284 440.727 694.736C441.675 697.429 440.574 706.647 440.36 710.109C442.058 708.668 445.658 706.75 447.713 705.565C462.981 697.385 474.875 687.741 488.714 677.494Z"/><path fill="#FECB07" d="M389.084 732.218C388.341 709.43 406.402 700.067 426.102 694.831C430.459 693.673 436.694 692.284 440.727 694.736C441.675 697.429 440.574 706.647 440.36 710.109C436.367 715.814 396.785 731.19 389.084 732.218Z"/><path fill="#00A751" d="M362.634 745.942L495.925 745.939C503.33 784.795 513.193 803.257 540.098 832.138C482.968 796.162 453.157 781.986 389.585 759.277C379.861 757.093 364.227 754.774 355.594 749.909C352.869 748.565 348.877 747.341 345.926 746.324C351.208 745.995 357.285 746.035 362.634 745.942Z"/><path fill="#00A751" d="M763.098 654.522C800.906 693.363 837.176 715.86 888.757 733.033C890.53 733.481 893.452 734.332 895.177 734.508C903.65 737.896 919.303 741.469 928.39 743.698C910.938 744.495 891.208 744.082 873.618 744.083L781.604 744.056C786.233 711.136 777.518 683.396 763.098 654.522Z"/><path fill="#FEF300" d="M660.941 869.454C662.863 868.593 667.653 867.572 669.806 867.085C683.493 863.99 695.862 858.881 708.771 853.417C706.139 855.768 700.255 860.106 699.782 862.867C688.112 873.666 677.552 882.88 666.331 894.323C669.912 884.966 668.735 876.122 660.941 869.454Z"/><path fill="#00A751" d="M567.125 852.217C587.328 861.692 596.999 865.545 618.9 869.243C608.193 874.613 609.928 880.078 610.739 890.973C605.777 887.188 598.803 879.876 593.835 875.247C585.217 867.245 576.307 859.564 567.125 852.217Z"/><path fill="#EE1D23" d="M670.372 632.686L672.41 632.672C679.761 640.697 688.379 669.883 691.401 680.634C681.192 683.083 672.561 684.252 662.194 685.469L641.285 686.366C641.463 669.611 641.3 652.568 641.299 635.789C652.221 635.874 659.781 634.635 670.372 632.686Z"/><path fill="#EE1D23" d="M618.556 769.205C623.828 768.665 630.718 768.698 636.132 768.574L636.106 818.833C622.683 819.38 616.506 821.241 604.656 822.399C596.296 807.304 590.498 790.914 586.257 774.224C597.928 771.33 606.582 770.122 618.556 769.205Z"/><path fill="#EE1D23" d="M759.335 659.042C771.283 678.332 776.71 701.661 777.388 724.175L749.598 724.193C741.171 724.433 742.5 723.872 741.793 715.33C740.552 700.336 737.347 686.905 732.34 672.771C741.975 668.489 750.282 664.401 759.335 659.042Z"/><path fill="#EE1D23" d="M500.263 730.511L535.205 730.529C535.4 749.002 539.291 764.719 545.06 782.034L535.635 786.316C529.504 789.162 523.866 792.419 517.979 795.72C506.128 775.979 500.701 753.384 500.263 730.511Z"/><path fill="#EE1D23" d="M517.682 659.231C526.38 662.807 534.954 668.479 545.215 672.649C537.478 693.597 537.268 701.396 535.081 722.994C533.569 724.599 533.61 724.046 530.558 724.196L500.273 724.235C500.146 699.663 506.749 680.505 517.682 659.231Z"/><path fill="#EE1D23" d="M742.38 730.516L777.437 730.533C776.771 753.195 772.366 769.553 762.758 789.807C761.889 791.573 761.008 792.897 759.96 794.541C759.524 794.686 759.088 794.831 758.652 794.975C751.323 790.9 739.474 785.193 732.258 781.974C739.071 764.77 741.496 748.87 742.38 730.516Z"/><path fill="#EE1D23" d="M689.507 686.651C691.374 686.35 690.456 686.272 692.323 687.09C695.451 694.144 695.781 716.071 695.951 724.199L665.739 724.25L656.45 714.642C651.644 709.524 640.606 700.717 642.078 693.511C643.401 692.254 645.064 691.216 646.927 691.187C661.991 690.948 674.751 689.781 689.507 686.651Z"/><path fill="#EE1D23" d="M581.617 730.51L611.095 730.519C618.31 737.562 625.728 745.282 632.443 752.823C635.299 756.031 637.541 758.952 635.135 763.086L632.803 763.392C614.177 763.806 602.858 764.68 584.829 768.933C582.438 753.825 581.754 745.809 581.617 730.51Z"/><path fill="#EE1D23" d="M726.539 674.908C733.362 683.604 736.181 712.972 737.051 724.203L708.866 724.193C705.817 724.317 704.785 724.611 702.087 723.438C700.727 718.46 700.077 695.612 697.771 684.475C707.529 681.816 717.132 678.623 726.539 674.908Z"/><path fill="#EE1D23" d="M540.445 730.52L576.13 730.522C575.975 743.854 577.163 757.167 579.676 770.261L571.24 772.707C564.188 774.966 557.187 777.384 550.243 779.957C543.377 760.764 542.105 750.624 540.445 730.52Z"/><path fill="#EE1D23" d="M604.781 632.163C616.726 634.56 624.009 635.713 636.137 635.788C636.132 646.279 636.858 676.752 635.69 685.503C633.69 686.807 631.835 686.319 629.348 686.151L595.835 650.834C598.65 643.917 601.346 638.752 604.781 632.163Z"/><path fill="#EE1D23" d="M701.451 730.517L737.151 730.53C735.84 747.819 734.542 756.83 729.63 773.296L727.077 779.823C711.635 774.783 710.688 772.096 699.641 760.073C700.766 750.85 701.296 739.8 701.451 730.517Z"/><path fill="#EE1D23" d="M641.292 768.514C642.005 768.496 642.719 768.493 643.432 768.505C644.402 768.518 646.577 768.585 647.217 769.131C658.3 778.59 671.701 793.785 681.722 804.166C679.628 809.175 677.338 813.716 674.925 818.558L673.472 821.114C670.657 822.359 647.546 819.127 641.286 818.823C641.51 802.214 641.303 785.157 641.292 768.514Z"/><path fill="#EE1D23" d="M550.147 674.881C565.049 679.631 567.047 683.971 577.878 695.637C576.706 703.882 576.255 714.986 575.752 723.353C573.841 724.649 570.643 724.224 568.173 724.194L540.403 724.211C542.658 702.002 542.953 696.572 550.147 674.881Z"/><path fill="#EE1D23" d="M545.263 787.784L546.725 787.758C548.75 789.278 551.503 795.916 552.776 798.457C559.21 811.302 567.699 821.728 577.122 832.499C572.197 835.175 567.631 839.458 562.399 841.314C560.747 841.901 559.468 840.576 557.794 839.532C540.902 827.342 532.254 817.214 520.737 800.26C528.787 795.424 536.757 791.719 545.263 787.784Z"/><path fill="#EE1D23" d="M715.686 612.411C733.418 623.831 745.265 637.398 756.868 654.631C751.305 657.656 745.689 660.582 740.024 663.411L730.369 667.55C721.15 648.343 714.625 638.003 700.395 622.373C705.69 619.255 710.607 615.853 715.686 612.411Z"/><path fill="#EE1D23" d="M580.114 775.643C581.703 777.348 584.829 788.396 585.776 791.314C589.669 803.302 593.687 812.793 599.809 823.777C593.814 825.389 587.748 827.757 581.897 829.898L577.907 825.616C565.96 811.584 560.17 801.57 552.387 785.05C562.024 781.242 570.169 778.687 580.114 775.643Z"/><path fill="#EE1D23" d="M695.037 624.943C703.133 627.816 721.347 660.903 725.096 669.887C719.055 672.17 712.946 674.268 706.776 676.176L696.488 679.296C692.902 662.724 685.757 645.906 677.835 630.981C684.387 629 688.739 627.438 695.037 624.943Z"/><path fill="#EE1D23" d="M641.251 824.283C652.603 824.248 658.951 825.368 669.878 827.441C664.554 835.443 660.044 841.951 654.197 849.558C650.079 854.721 645.767 859.726 641.27 864.562C641.367 851.136 641.361 837.709 641.251 824.283Z"/><path fill="#EE1D23" d="M641.366 591.136C646.431 594.086 667.535 621.14 668.546 626.873L666.47 627.954C658.484 629.834 649.482 630.285 641.298 630.69L641.366 591.136Z"/><path fill="#EE1D23" d="M634.951 591.469C637.105 594.513 636.129 624.884 636.099 630.689C627.994 630.495 619.918 629.638 611.953 628.125L609.486 627.231L609.221 625.983C612.428 617.247 628.542 598.796 634.951 591.469Z"/><path fill="#EE1D23" d="M624.712 824.707C627.145 824.363 633.405 824.374 636.145 824.307L636.101 864.192C633.31 861.526 630.804 858.515 628.267 855.6C620.751 846.74 613.915 837.324 607.819 827.434C613.792 826.211 618.713 825.498 624.712 824.707Z"/><path fill="#EE1D23" d="M674.953 828.636C680.851 830.289 685.897 832.035 691.645 834.054C681.537 844.018 671.038 851.559 659.178 859.2C653.905 862.348 652.148 863.394 646.412 865.371C657.474 854.322 666.493 841.715 674.953 828.636Z"/><path fill="#EE1D23" d="M647 589.836C654.582 591.401 689.223 614.4 690.273 620.762L688.846 621.704C684.883 623.257 679.203 624.855 675.029 626.162C666.878 613.179 657.492 601.014 647 589.836Z"/><path fill="#EE1D23" d="M628.66 589.907L629.17 590.095L629.464 590.886C617.75 604.32 612.393 610.958 602.6 626.153L591.256 622.648C589.107 621.956 589.042 622.043 587.201 620.571C589.196 613.558 621.006 593.802 628.66 589.907Z"/><path fill="#EE1D23" d="M602.452 828.771C602.877 829.206 611.632 841.76 612.572 843.083C618.774 851.805 624.184 858.175 631.442 866C626.403 863.755 623.214 861.984 618.421 859.201C606.182 851.821 596.322 843.779 585.992 834.033C591.875 831.781 596.445 830.463 602.452 828.771Z"/><path fill="#EE1D23" d="M580.149 836.727C581.92 836.863 586.445 841.33 588.27 842.897C598.096 851.339 607.588 857.892 618.66 864.546L605.611 861.576C590.892 858.073 579.305 852.889 566.396 845.278C570.445 842.351 575.793 839.338 580.149 836.727Z"/><path fill="#EE1D23" d="M615.28 591.154C615.336 591.497 615.392 591.841 615.448 592.184C603.292 599.092 591.223 608.639 581.211 618.41L574.035 614.496L566.233 609.493C583.079 599.595 596.083 594.719 615.28 591.154Z"/><path fill="#EE1D23" d="M660.679 591.002C668.538 592.105 708.742 602.75 709.91 610.024L705.994 612.981L696.442 618.454C684.562 606.827 674.703 600.057 660.679 591.002Z"/><path fill="#EE1D23" d="M696.176 836.683C700.318 837.778 707.274 842.743 711.05 845.288C698.103 853.174 688.5 856.878 674.194 861.108L659.236 864.371C674.724 855.157 683.072 848.707 696.176 836.683Z"/><path fill="#EE1D23" d="M671.452 730.531L695.978 730.52C695.881 738.521 695.447 745.409 694.847 753.396L694.083 753.487C691.54 752.103 674.683 733.911 671.452 730.531Z"/><path fill="#EE1D23" d="M582.87 701.086C590.102 708.046 598.114 716.629 604.769 724.118L581.596 724.219C581.633 716.263 581.732 708.975 582.87 701.086Z"/><path fill="#EE1D23" d="M730.043 787.001C739.661 790.805 747.967 795.15 756.869 800.314L751.335 808.263C749.843 810.188 750.756 809.578 748.68 810.386C743.189 807.545 733.986 796.727 730.08 791.485C728.823 789.798 729.493 789.109 730.043 787.001Z"/><path fill="#EE1D23" d="M581.84 624.745C587.718 627.159 593.743 629.062 599.775 631.057C597.337 635.342 595.082 640.121 592.883 644.568L591.895 645.617C589.245 644.89 579.331 633.708 576.583 630.782L581.84 624.745Z"/><path fill="#EE1D23" d="M528.161 643.732C532.101 647.769 546.492 661.439 547.473 665.795L546.618 666.961L544.179 666.38C535.624 662.625 528.988 659.115 520.777 654.636L528.161 643.732Z"/><path fill="#EE1D23" d="M685.68 808.387L700.914 824.342C698.971 826.53 697.45 828.863 694.782 829.613C689.077 827.254 683.729 825.625 677.867 823.776C680.519 818.809 683.123 813.437 685.68 808.387Z"/><path fill="#EE1D23" d="M560.689 612.48C563.932 613.16 574.446 619.861 576.358 623.025L575.042 625.989C573.753 626.251 573.893 626.124 572.529 625.973C569.355 623.28 561.513 616.222 560.689 612.48Z"/><path fill="#EE1D23" d="M703.821 828.136C706.815 829.978 714.082 837.829 716.133 840.744L715.303 842.002C710.385 838.336 703.022 836.051 701.597 831.198L703.821 828.136Z"/><path fill="#141F48" d="M727.027 1293.82L770.357 1293.68C771.195 1339.43 775.367 1392.66 778.028 1438.94C767.617 1438.49 756.325 1438.9 745.832 1439.1C744.478 1407.09 743.323 1375.07 742.369 1343.04C742.428 1336.91 742.312 1330.54 742.278 1324.39C731.809 1362.49 719.743 1399.07 708.224 1436.81L682.262 1436.84C677.559 1416.2 669.848 1392.79 664.559 1371.8C660.797 1356.86 657.593 1340.37 653.69 1325.99L648.333 1438.85C638.531 1438.6 628.06 1438.75 618.204 1438.72C619.548 1392.12 624.471 1340.93 626.94 1293.78L671.031 1293.78C680.731 1326.39 691.298 1361.3 697.649 1394.52C706.714 1358.17 715.593 1329.36 727.027 1293.82Z"/><path fill="#141F48" d="M389.29 1293.47C405.239 1291.99 432.422 1292.36 446.719 1298.59C477.459 1311.97 476.705 1347.83 444.516 1360.64C475.556 1371.21 483.276 1401.69 461.177 1425.7C436.497 1445.62 396.117 1441.42 365.989 1439.21L365.888 1295.94C374.146 1294.68 380.95 1294.1 389.29 1293.47ZM433.122 1410.06C440.773 1400.32 442.894 1388.78 431.085 1380.8C421.686 1374.45 409.373 1374.58 398.472 1374.75C398.439 1388.53 398.262 1402.57 398.376 1416.33C411.329 1416.62 422.198 1417.97 433.122 1410.06ZM398.419 1351.47C409.953 1351.46 420.157 1352.29 430.206 1345.89C436.783 1338.5 440.242 1328.98 430.646 1322.25C421.18 1315.61 409.381 1316.76 398.466 1317.37L398.419 1351.47Z"/><path fill="#141F48" d="M836.742 1293.99L880.298 1294C894.508 1342.1 910.202 1391.09 925.174 1439.05C913.036 1439.11 901.698 1438.4 889.428 1439.19C886.291 1427.57 882.405 1415.46 878.9 1403.9L878.707 1403.02C875.835 1400.98 843.184 1401.91 837.421 1401.94C833.827 1414.3 830.357 1426.7 827.011 1439.14L792.442 1439.13C807.452 1390.83 822.219 1342.45 836.742 1293.99ZM842.193 1377.27C848.276 1377.32 854.504 1377.45 860.573 1377.43L873.562 1377.35C867.872 1357.87 862.063 1338.59 857.443 1318.81C852.178 1338.11 847.46 1357.8 842.193 1377.27Z"/><path fill="#141F48" d="M516.752 1293.61C549.632 1290.71 595.651 1291.37 599.826 1333.78C602.628 1362.24 584.159 1382.85 556.436 1386.65C546.768 1387.98 538.114 1387.3 528.621 1387.97L528.431 1438.78C517.794 1438.62 506.724 1438.94 496.053 1439.11L496.082 1295.93C503.177 1294.62 509.583 1294.2 516.752 1293.61ZM528.585 1362.15C540.102 1363.08 549.191 1363.5 559.369 1356.94C568.32 1347.94 572.351 1334.5 561.479 1324.67C553.513 1317.47 543.908 1317.39 533.744 1318.15C532.643 1318.23 531.545 1318.34 530.45 1318.48L528.818 1319.43C527.851 1328.53 528.517 1352.38 528.585 1362.15Z"/><path fill="#838284" d="M241.591 1249.79L781.592 1249.8L953.186 1249.82L1006.4 1249.74C1016.48 1249.7 1029.13 1249.33 1038.94 1250.01C1040.25 1251.84 1039.78 1254.17 1039.81 1256.84L493.676 1256.67L324.869 1256.66L272.18 1256.8C263.76 1256.82 250.22 1257.24 242.183 1256.46C241.036 1254.68 241.487 1252.05 241.591 1249.79Z"/><path d="M328.092 1052.28C331.245 1052.03 336.591 1051.74 339.627 1052.15C378.393 1057.36 380.703 1116.44 341.453 1125.41C291.643 1132.26 284.192 1063.62 328.092 1052.28ZM338.328 1112.66C344.108 1110.05 348.199 1106.48 350.079 1100.28C354.988 1084.07 350.692 1064.04 330.021 1065.51C309.916 1076.2 312.614 1114.33 338.328 1112.66Z"/><path d="M704.438 1052.84L726.358 1052.75C726.352 1075.28 729.108 1101.94 729.975 1125.03L714.103 1125.07C712.898 1114.79 712.524 1095.96 712.37 1085.56C712.242 1080.6 712.087 1075.63 711.904 1070.66C706.182 1087 700.479 1107.17 695.167 1123.92C690.903 1123.95 686.453 1123.83 682.171 1123.78C676.812 1105.96 672.075 1087.95 667.969 1069.79L665.419 1124.77L649.969 1124.97C650.644 1102.03 653.121 1076.08 654.401 1052.77L676.319 1052.78C681.362 1066.8 686.722 1087.7 689.796 1102.08C694.606 1084.62 698.848 1070.08 704.438 1052.84Z"/><path d="M996.015 1052.45C1014.16 1050.6 1048.04 1051.02 1038.58 1080.05C1036.99 1084.94 1031.92 1086.16 1028.84 1090.18C1029.93 1094.25 1033.87 1094.67 1034.85 1097.42C1037.88 1105.95 1040.37 1116.19 1042.69 1124.85C1038.1 1124.89 1030.6 1126.04 1026.32 1124.39C1025.12 1123.93 1024.94 1122.43 1024.36 1120.89C1019.12 1105.99 1023.36 1096.06 1004.25 1096.03L1004.21 1124.68C999.026 1125.02 993.403 1124.8 988.173 1124.7C987.835 1107.05 988.231 1089.28 987.979 1071.62C987.897 1065.89 987.732 1059.6 988.491 1053.97C990.243 1052.62 993.64 1052.66 996.015 1052.45ZM1004.25 1083.99C1011.55 1084.1 1014.37 1084.64 1020.75 1081.12C1030.29 1066.37 1015.72 1063.61 1004.23 1064.58L1004.25 1083.99Z"/><path fill="#FECB07" d="M604.718 924.078C628.525 928.258 649.096 927.495 672.754 924.108C672.361 939.998 669.91 950.563 661.231 963.894C660.414 964.964 659.571 966.013 658.702 967.041C648.765 978.712 634.06 981.413 622.256 970.445C609.236 958.348 605.564 941.137 604.718 924.078Z"/><path fill="#FECB07" d="M766.398 880.878C775.57 890.324 780.507 922.802 772.391 934.925C760.35 952.91 743.277 947.263 727.864 937.867C719.062 930.983 713.471 924.18 707.633 914.8C731 905.971 746.997 896.117 766.398 880.878Z"/><path fill="#FECB07" d="M451.093 796.313C452.453 798.03 460.665 817.801 463.071 822.153C469.975 834.641 476.753 843.728 485.267 855.229C474.25 861.323 467.613 863.214 455.474 865.129C451.041 865.291 446.866 865.343 442.632 864.649C414.172 859.908 414.807 833.091 430.043 814.611C436.934 806.253 441.93 802.296 451.093 796.313Z"/><path fill="#FECB07" d="M826.144 796.21C860.056 816.427 877.896 865.032 823.986 865.202C810.367 863.649 804.507 861.67 792.152 855.429C807.595 836.442 817.289 818.75 826.144 796.21Z"/><path fill="#FECB07" d="M523.553 507.978C544.688 507.923 559.225 523.135 569.813 539.772C554.515 546.377 546.591 549.832 532.504 558.537C524.788 563.156 517.908 568.358 510.883 573.935C499.656 553.548 491.613 513.459 523.553 507.978Z"/><path fill="#FECB07" d="M824.467 589.563C844.318 587.883 861.952 598.779 857.239 620.857C853.796 636.985 840.586 649.864 826.874 658.175C824.947 656.473 816.991 636.56 814.523 632.171C807.844 620.292 800.74 610.663 792.781 599.743C802.886 593.135 812.638 590.707 824.467 589.563Z"/><path fill="#FECB07" d="M447.607 589.505C461.975 588.865 472.729 593.154 485.239 599.441C471.079 618.031 462.869 630.716 453.892 652.165C453.062 654.447 452.761 656.057 450.942 657.629C425.436 648.926 397.373 594.995 447.607 589.505Z"/><path fill="#FECB07" d="M510.74 880.803C534.657 898.294 541.587 903.247 569.538 914.857C565.104 923.795 558.955 930.177 551.431 936.501C520.353 959.869 495.965 941.085 502.065 905.059C503.695 895.427 506.4 889.353 510.74 880.803Z"/><path fill="#FECB07" d="M751.949 508.154C786.167 509.739 777.978 553.261 766.664 573.62C760.174 568.51 754.15 564.288 747.367 559.578C733.509 550.913 722.73 545.925 707.698 539.91C717.191 523.479 732.337 509.551 751.949 508.154Z"/><path d="M575.961 1053.12C582.942 1052.91 590.572 1053.02 597.607 1052.98C604.951 1076.36 613.438 1101.63 619.996 1125.09L602.274 1125.09C600.385 1119.25 598.655 1113.05 596.905 1107.14C595.181 1105.53 579.647 1106.23 576.28 1106.26L571.187 1125.04L553.811 1125.07L575.961 1053.12ZM588.747 1093.89C591.605 1093.86 591.965 1094.34 593.933 1093.05C591.393 1084.35 588.381 1074.74 586.344 1066.01L579.066 1093.08C581.921 1094.4 585.463 1093.95 588.747 1093.89Z"/><path d="M933.994 1053.02L955.489 1052.95L978.154 1124.74C971.495 1125.05 966.587 1124.93 959.999 1124.67C958.361 1118.52 956.453 1112.62 954.529 1106.57C949.102 1105.82 940.003 1106.14 934.266 1106.17L928.918 1125L912.038 1125.05C917.833 1102.9 927.116 1075.25 933.994 1053.02ZM936.797 1093.78L947.025 1093.78L951.441 1093.7C951.878 1092.19 945.43 1069.13 943.852 1067.68L936.797 1093.78Z"/><path d="M248.897 1052.44C266.073 1050.47 292.375 1051.68 292.465 1075.25C292.534 1081.28 290.148 1087.06 285.858 1091.29C277.666 1099.36 267.691 1099.6 257.107 1099.49C255.658 1101.54 256.175 1121.07 256.166 1125.02C250.818 1124.88 245.466 1124.87 240.118 1125L240.161 1053.48C242.726 1053.04 246.235 1052.75 248.897 1052.44ZM256.377 1086.67C262.804 1086.82 266.196 1087.11 272.043 1083.99C282.654 1069 270.064 1064.02 256.307 1064.66C256.291 1072 256.314 1079.33 256.377 1086.67Z"/><path fill="#FECB07" d="M411.603 626.366C414.605 627.905 421.991 652.73 449.373 664.375C447.044 671.761 445.514 677.953 443.726 685.483C430.758 684.292 425.077 684.914 412.561 688.719C402.87 692.791 399.09 695.299 390.984 701.892C380.014 672.201 388.235 646.736 411.603 626.366Z"/><path fill="#FECB07" d="M866.276 626.037C891.258 643.061 895.235 675.011 885.824 701.816C878.433 696.471 874.509 694.009 866.139 690.409C855.508 686.617 845.519 685.739 834.429 687.393C832.811 680.481 830.691 672.997 828.87 666.08C848.996 656.825 858.128 645.939 866.276 626.037Z"/><path fill="#FECB07" d="M786.608 861.397C788.534 861.809 794.06 866.206 796.404 867.434C811.531 875.361 824.749 876.355 840.952 873.387C836.661 892.472 831.43 902.707 816.234 915.472C804.852 923.752 797.848 925.857 784.486 928.632C786.477 907.794 784.238 893.724 771.292 876.465C777.37 871.029 781.125 867.419 786.608 861.397Z"/><path fill="#FECB07" d="M489.465 860.134C492.636 862.806 501.389 872.09 504.879 875.551C492.348 893.785 489.137 907.127 492.52 929.109C480.536 927.156 474.572 924.316 464.339 918.105C447.374 905.167 441.647 893.136 437.723 872.882C459.417 875.842 471.605 872.182 489.465 860.134Z"/><path fill="#FECB07" d="M699.396 917.565C701.416 918.591 706.413 930.168 709.342 933.582C719.133 944.995 726.831 949.321 740.066 955.025C730.967 967.457 719.38 973.791 704.894 977.773C690.687 981.404 677.851 979.395 664.441 974.186C677.672 957.04 680.494 943.958 679.083 922.931C686.638 921.327 692.024 919.806 699.396 917.565Z"/><path fill="#FECB07" d="M575.889 916.998C583.585 919.289 588.979 920.839 596.864 922.347C595.589 945.682 598.671 956.816 613.092 975.249C600.685 979.958 590.521 980.749 577.526 978.821C561.176 975.923 547.655 967.172 537.726 954.015C557.358 945.05 566.82 936.558 575.889 916.998Z"/><path fill="#FECB07" d="M785.239 525.726C816.555 530.67 834.352 551.615 839.891 581.947C830.274 580.613 825.718 580.593 816.113 581.877C803.871 584.717 798.465 587.506 788.219 594.7C783.414 589.489 778.147 584.377 773.118 579.355C785.754 559.479 787.729 548.552 785.239 525.726Z"/><path fill="#FECB07" d="M489.15 526.931L492.131 526.783C493.479 528.741 492.526 532.194 492.39 534.81C492.033 540.728 492.522 546.667 493.843 552.447C496.217 562.711 500.127 569.686 506.184 578.088C500.955 583.208 495.756 588.358 490.587 593.539C482.731 587.168 475.807 584.371 466.34 581.333C454.307 579.122 448.732 578.998 436.797 581.305C443.714 550.84 458.514 534.418 489.15 526.931Z"/><path d="M595.278 1159.5C600.14 1159.17 606.394 1158.63 610.655 1160.91C633.844 1173.32 630.689 1206.15 606.875 1215.46C602.173 1215.89 595.948 1216.44 591.78 1214.28C568.031 1201.98 571.245 1169.2 595.278 1159.5ZM603.296 1210.38C626.637 1202.01 622.162 1165.35 599.695 1164.49C576.177 1170.89 577.829 1209.16 603.296 1210.38Z"/><path d="M760.742 1160.6C772.834 1159.72 786.574 1158.77 795.637 1168.38C807.109 1180.55 803.296 1198.21 792.059 1208.88C780.154 1216.25 770.658 1215.39 757.086 1214.28C757.047 1207.64 756.305 1163.69 757.752 1161.18L760.742 1160.6ZM764.44 1209.22C773.28 1209.31 779.634 1209.86 787.28 1204.58C799.552 1191.48 797.524 1170.57 777.755 1165.86C774.394 1165.05 770.076 1165.31 766.623 1165.48L764.687 1166.39C763.58 1173.04 764.335 1200.73 764.44 1209.22Z"/><path d="M280.919 1160.54C306.923 1159.06 328.652 1163.72 319.792 1198.2C318.656 1202.63 314.883 1206.38 311.497 1209.4C299.933 1216.14 289.938 1215.25 277.022 1214.23C277.096 1207.09 276.049 1165.44 277.617 1161.32L280.919 1160.54ZM284.344 1209.22C293.4 1209.33 299.344 1209.9 307.27 1204.74C318.532 1192.16 318.498 1173.5 300.666 1166.65C296.419 1165.02 290.879 1165.32 286.331 1165.41L284.781 1166.26C283.752 1171.07 284.292 1201.88 284.344 1209.22Z"/><path d="M493.672 1052.31C504.385 1051.7 508.705 1051.98 519.247 1053.99C518.305 1058.54 516.986 1063.49 515.872 1068.05C498.743 1063.09 479.631 1065.6 478.992 1088.53C478.628 1101.58 486.105 1110.48 499.093 1111.74C505.16 1112.33 509.792 1110.82 515.717 1110.7L516.48 1112.22L518.328 1123.33C517.858 1123.48 517.385 1123.62 516.91 1123.75C504.21 1127.23 488.959 1127.38 477.702 1120.64C453.678 1106.28 456.886 1066.85 482.395 1055.82C486.497 1054.05 489.382 1053.29 493.672 1052.31Z"/><path d="M853.554 1053.03L909.027 1052.94L908.829 1066.66L889.364 1066.72L889.377 1105.72L889.328 1125.07L872.99 1125.1C872.764 1105.81 872.94 1086.17 872.929 1066.84L853.546 1066.77L853.554 1053.03Z"/><path d="M773.043 1052.98L789.262 1052.93L789.358 1111.26L818.277 1111.22L818.224 1125.03L772.999 1125.12L773.043 1052.98Z"/><path d="M379.06 1052.98L395.082 1052.92C395.432 1072.28 394.985 1091.76 395.37 1111.25L424.266 1111.22C424.471 1115.65 424.253 1120.59 424.151 1125.07L379.055 1125.06C378.794 1101.2 379.049 1076.88 379.06 1052.98Z"/><path d="M866.706 1160.47C875.596 1159.96 899.894 1158.47 898.771 1176.08C898.458 1180.99 892.554 1186.24 888.445 1189.12C894.141 1192.92 900.255 1208.1 897.787 1214.26C895.352 1215.53 896.425 1215.28 893.439 1214.79C890.703 1212.13 891.138 1211.31 889.911 1207.27C887.386 1193.5 885.54 1191.34 871.256 1191.58C871.196 1198.13 871.418 1206.07 871.282 1212.63C871.256 1213.88 870.604 1213.86 869.23 1214.73C866.056 1214.81 866.165 1215.38 864.369 1213.85C863.461 1208.55 863.532 1166.09 864.564 1161.49L866.706 1160.47ZM871.301 1186.01C876.678 1185.94 881.414 1186.23 886.477 1184.27C898.044 1171.49 886.001 1165.01 872.895 1165.46L871.493 1166.5C870.856 1172.73 871.183 1179.69 871.301 1186.01Z"/><path d="M458.342 1160.51C462.343 1160.3 468.539 1159.62 472.341 1160.15C492.515 1163.01 497.844 1176.95 480.393 1189.09C486.03 1193 492.385 1208.27 489.82 1214.28C487.545 1215.35 487.598 1215.22 485.232 1214.79C482.948 1212.59 483.107 1211.24 482.087 1207.92C479.09 1193.58 478.615 1191.39 463.394 1191.59C463.448 1199.08 463.541 1206.26 463.186 1213.75L461.746 1214.82C459.277 1215.05 458.65 1215.33 456.494 1214.08C455.711 1208.66 455.616 1166.62 456.526 1161.54L458.342 1160.51ZM478.367 1184.36C490.641 1171.83 478.003 1165.21 464.949 1165.39C461.965 1167.81 463.232 1181.57 463.317 1185.97C468.736 1185.94 473.199 1186.2 478.367 1184.36Z"/><path fill="#FECB07" d="M607.624 901.099C617.616 901.096 667.389 899.502 672.908 902.785C676.439 907.923 676.252 915.576 670.751 919.408C661.245 919.418 610.104 920.695 604.85 917.908C601.963 913.511 602.886 910.492 603.63 905.424C604.026 902.728 605.314 902.546 607.624 901.099Z"/><path d="M433.944 1052.98L450.344 1052.97L450.273 1125.07L434.077 1125.13C433.448 1101.91 433.963 1076.38 433.944 1052.98Z"/><path d="M528.951 1052.94L545.264 1052.96L545.265 1125.01L529.066 1125.07C528.205 1103.39 529.006 1075.25 528.951 1052.94Z"/><path d="M828.081 1053.02L844.365 1052.96C844.046 1076.68 844.016 1100.41 844.274 1124.13C842.568 1125.63 831.076 1125 828.126 1124.96C827.719 1101.27 828.055 1076.78 828.081 1053.02Z"/><path d="M742.207 1052.99L758.178 1052.97L758.075 1125.04L742.135 1125.11L742.207 1052.99Z"/><path d="M928.458 1160.07C930.16 1160.01 936.022 1159.79 936.622 1160.81C940.122 1166.74 954.634 1210.55 954.978 1214.41C953.353 1215.71 953.402 1215.56 951.3 1215.8C946.36 1214.04 945.258 1203.91 942.435 1199.67C941.232 1197.87 940.435 1198.34 937.881 1198.1C932.929 1198.07 927.977 1198.02 923.026 1197.95C921.754 1201.78 919.085 1210.89 917.026 1214.36C916.676 1214.95 912.528 1214.6 911.336 1214.57L910.804 1213.71C912.311 1205.47 924.946 1170.56 928.458 1160.07ZM924.428 1192.43L934.556 1192.5C936.723 1192.44 938.776 1192.77 940.304 1191.71C939.131 1187.77 933.913 1169.24 932.293 1167.42C929.873 1176.56 927.579 1183.5 924.428 1192.43Z"/><path fill="#FECB07" d="M620.434 874.525C628.109 874.504 655.875 871.379 660.767 878.399C664.095 883.175 663.034 890.305 657.317 894.021C646.416 894.132 635.072 894.925 624.254 894.122C612.988 893.286 612.225 880.388 620.434 874.525Z"/><path d="M711.056 1160.01C715.732 1159.97 738.305 1158.78 740.6 1161.36C740.456 1162.74 740.636 1163.83 739.747 1164.61C736.776 1167.21 722.736 1166.08 718.307 1166.01L718.3 1183.38C722.114 1183.33 735.876 1182.78 738.535 1183.9C740.012 1186.48 739.722 1185.13 739.407 1188.11C736.205 1190.37 723.545 1187.42 718.488 1189.83L718.23 1192.36L718.239 1209.06C723.408 1209.03 737.056 1208.63 741.434 1209.63C741.631 1211.89 741.852 1212.48 740.883 1214.57C735.335 1215.64 717.473 1215.04 711.024 1214.98C710.84 1196.77 711.034 1178.25 711.056 1160.01Z"/><path d="M817.993 1160.07C823.382 1160.11 843.982 1159.06 847.566 1160.94C847.771 1162.65 848.095 1163.54 847.206 1164.98C842.647 1166.75 830.839 1166.1 825.338 1166.03L825.418 1183.34C830.571 1183.37 839.319 1182.86 844.025 1183.5C846.578 1185.4 845.868 1184.36 846.887 1187.3C844.707 1191.33 829.338 1187.53 825.485 1189.68L825.364 1193.19L825.399 1209.12C830.69 1209.05 844.271 1208.48 848.563 1210.01C848.663 1212.9 849.094 1212.47 847.836 1214.53C841.767 1215.54 824.785 1215.03 818.016 1214.97L817.993 1160.07Z"/><path d="M374.242 1159.41C378.471 1159.18 388.24 1158.47 390.478 1162.57L389.367 1166.14C388.17 1166.54 366.022 1160.1 369.1 1175.11C370.807 1183.44 392.026 1185.51 393.113 1196.76C394.311 1209.15 388.068 1213.71 377.45 1215.88C372.997 1215.95 361.986 1215.68 361.078 1210.44C363.882 1204.97 376.688 1212.35 381.187 1208.83C399.912 1194.18 365.64 1189.53 362.44 1178.26C359.314 1167.26 366.168 1162.46 374.242 1159.41Z"/><path d="M665.026 1160.03C670.515 1160 691.504 1158.84 694.326 1161.36C694.203 1162.59 694.353 1163.91 693.527 1164.55C690.25 1167.1 677.022 1166.05 672.321 1165.98L672.355 1184.28C678.186 1184.25 686.357 1183.25 691.554 1185C693.156 1187.18 692.739 1186.22 692.411 1189.58L690.901 1190.02L672.38 1190.03C672.371 1193.95 672.805 1212.4 671.624 1214.5C668.617 1214.78 668.463 1214.79 665.56 1214.08C664.53 1209.5 665.016 1167.96 665.026 1160.03Z"/><path d="M525.84 1160.07C533.527 1159.98 562.3 1158.46 566.744 1162.07C566.969 1164.82 567.396 1163.78 566.222 1165.59C562.066 1166.2 554.554 1165.99 550.103 1165.98C549.897 1176.51 550.013 1187.4 549.987 1197.97C550.075 1204.04 551.274 1212.33 547.558 1216.26L545.065 1215.93C541.058 1211.13 542.621 1174.75 542.683 1166.05C538.908 1165.87 535.455 1166.48 531.766 1166.39C525.884 1166.25 526.351 1164.58 525.84 1160.07Z"/><path d="M403.806 1160.08C411.958 1160.01 437.439 1159.28 443.655 1160.48C444.884 1162.41 444.408 1162.73 444.397 1165.5C440.498 1166.33 432.306 1166.02 427.99 1166L427.96 1197.56C428.037 1203.11 429.704 1211.18 425.262 1214.54C422.346 1214.6 422.783 1215.07 421.166 1213.63C419.866 1204.5 420.66 1176.57 420.716 1166.05C415.981 1165.86 409.38 1167.26 405.548 1165.26C403.945 1164.42 404.136 1162.23 403.806 1160.08Z"/><path d="M970.079 1160.02C973.016 1159.95 974.38 1159.66 976.99 1160.79C977.788 1165.62 977.378 1201.8 977.414 1209.07C983.216 1209.13 995.264 1207.43 999.984 1210.13C1000.84 1210.62 1000.56 1213.47 1000.6 1214.88C991.01 1215.21 979.793 1214.95 970.074 1214.97L970.079 1160.02Z"/><path d="M336.903 1160.03C340.158 1159.88 340.58 1159.76 343.658 1160.59C345.036 1164.48 344.258 1207.47 344.232 1214.91C341.689 1214.93 339.354 1215.2 337.532 1213.9C336.164 1207.28 336.858 1169.48 336.903 1160.03Z"/><path d="M506.146 1159.99C509.443 1159.85 510.083 1159.67 513.163 1160.59C513.78 1164.53 513.496 1174.47 513.488 1178.79C513.511 1190.81 513.419 1202.82 513.211 1214.84C510.412 1214.82 508.577 1215.28 506.453 1214.01C505.205 1202.52 506.096 1172.81 506.146 1159.99Z"/><path d="M443.024 1035.69C448.77 1035.61 454.744 1035.72 460.511 1035.74C456.875 1039.6 452.7 1043.63 448.93 1047.42C446.127 1049.8 438.222 1048.97 434.051 1048.91L443.024 1035.69Z"/><path fill="#353335" fill-opacity="0.14901961" d="M690.542 914.559L693.382 915.008L693.887 916.004L691.798 917.795C689.217 917.529 690.034 918.107 688.501 916.763L690.542 914.559Z"/></svg>